<?xml version="1.0" standalone="no"?>
<!DOCTYPE svg PUBLIC "-//W3C//DTD SVG 20010904//EN"
 "http://www.w3.org/TR/2001/REC-SVG-20010904/DTD/svg10.dtd">
<svg version="1.0" xmlns="http://www.w3.org/2000/svg"
 width="1080.000000pt" height="1080.000000pt" viewBox="0 0 1080.000000 1080.000000"
 preserveAspectRatio="xMidYMid meet">
<metadata>
Created by potrace 1.14, written by Peter Selinger 2001-2017
</metadata>
<g transform="translate(0.000000,1080.000000) scale(0.100000,-0.100000)"
fill="#000000" stroke="none">
<path d="M0 10749 c0 -46 2 -51 20 -46 11 3 18 1 14 -4 -3 -5 -12 -9 -20 -9
-19 0 -21 -275 -1 -283 9 -4 9 -6 0 -6 -10 -1 -13 -1048 -13 -5201 l0 -5200
5400 0 5400 0 0 5400 0 5400 -1452 -2 c-799 -1 -1426 -5 -1393 -8 l60 -7 -67
-1 c-37 -1 -70 3 -73 8 -3 6 -13 10 -21 10 -8 0 -13 -4 -10 -8 3 -5 -1 -9 -9
-9 -8 0 -12 4 -9 9 3 4 -253 8 -570 8 -450 0 -575 -3 -579 -12 -4 -10 -6 -10
-6 0 -1 9 -142 12 -669 12 -521 0 -671 -3 -681 -12 -11 -10 -13 -10 -7 0 4 6
2 12 -3 12 -6 0 -11 -4 -11 -10 0 -5 -5 -10 -11 -10 -5 0 -8 4 -5 9 4 5 -1086
9 -2639 10 l-2645 2 0 -52z m3627 35 c-3 -3 -12 -4 -19 -1 -8 3 -5 6 6 6 11 1
17 -2 13 -5z m1533 -3 c14 -4 -54 -6 -150 -4 -96 3 -179 6 -185 8 -20 7 311 3
335 -4z m525 -1 c3 -5 -1 -10 -9 -10 -9 0 -16 5 -16 10 0 6 4 10 9 10 6 0 13
-4 16 -10z m113 -3 c6 0 12 -4 12 -9 0 -4 5 -8 11 -8 5 0 7 5 4 10 -3 6 -2 10
4 10 5 0 13 -4 16 -10 3 -5 11 -10 16 -10 6 0 7 5 4 10 -3 6 -1 10 4 10 6 0
11 -4 11 -10 0 -5 17 -10 38 -9 28 0 32 2 17 8 -17 7 -16 9 10 12 17 3 41 2
55 -2 22 -6 21 -7 -9 -8 -53 -2 -25 -20 34 -22 28 -1 56 -7 64 -13 11 -8 13
-8 8 0 -8 14 25 13 35 0 3 -5 26 -13 50 -17 30 -5 21 -6 -32 -3 -271 16 -487
24 -632 23 -93 0 -168 3 -168 8 0 4 28 9 62 10 214 5 297 5 307 -1 6 -4 19 -2
28 3 16 9 16 10 -4 11 -13 0 -23 5 -23 11 0 7 11 8 33 3 17 -4 38 -7 45 -7z
m1205 -3 c42 -4 77 -10 77 -14 0 -7 -34 -6 -220 5 -52 4 -103 6 -113 6 -9 0
-15 4 -12 10 6 9 132 6 268 -7z m1525 9 c-10 -2 -26 -2 -35 0 -10 3 -2 5 17 5
19 0 27 -2 18 -5z m135 0 c-18 -2 -48 -2 -65 0 -18 2 -4 4 32 4 36 0 50 -2 33
-4z m-6828 -13 c3 -5 -13 -7 -42 -3 -63 7 -68 13 -10 13 25 0 48 -4 52 -10z
m746 -2 c0 -10 2 -10 5 -1 3 7 12 9 20 6 7 -3 11 -9 8 -14 -7 -12 13 -11 38 2
16 9 19 8 12 -3 -6 -11 -5 -11 8 0 11 9 23 10 41 3 16 -7 28 -6 36 2 8 8 11 8
11 0 0 -6 8 -14 18 -16 9 -3 -46 -5 -123 -5 -77 0 -134 2 -127 5 17 6 15 23
-3 23 -7 0 -19 -8 -24 -17 -10 -17 -10 -17 -11 -1 0 13 -11 18 -42 21 -24 2
-4 4 45 5 63 2 87 -1 88 -10z m1509 0 c0 -4 -12 -8 -27 -8 -23 0 -25 -2 -13
-11 14 -10 -53 -8 -225 6 -16 1 -51 3 -77 4 -27 0 -48 5 -48 9 0 5 88 9 195 9
107 -1 195 -4 195 -9z m70 2 c0 -5 -9 -10 -21 -10 -11 0 -17 5 -14 10 3 6 13
10 21 10 8 0 14 -4 14 -10z m2288 3 c-10 -2 -26 -2 -35 0 -10 3 -2 5 17 5 19
0 27 -2 18 -5z m-5291 -9 c-3 -3 -12 -4 -19 -1 -8 3 -5 6 6 6 11 1 17 -2 13
-5z m312 -10 c8 -8 -54 -3 -74 6 -14 7 -6 8 25 4 25 -3 47 -8 49 -10z m448 10
c-3 -3 -12 -4 -19 -1 -8 3 -5 6 6 6 11 1 17 -2 13 -5z m56 -1 c-7 -2 -19 -2
-25 0 -7 3 -2 5 12 5 14 0 19 -2 13 -5z m2245 0 c-10 -2 -26 -2 -35 0 -10 3
-2 5 17 5 19 0 27 -2 18 -5z m373 -7 c24 -1 35 -5 32 -13 -3 -8 -21 -11 -56
-7 -84 8 -158 12 -219 13 -32 1 -58 5 -58 10 0 5 56 7 133 3 72 -3 148 -6 168
-6z m-3053 -3 c-10 -2 -28 -2 -40 0 -13 2 -5 4 17 4 22 1 32 -1 23 -4z m162
-7 c14 -2 -12 -4 -57 -5 -46 0 -83 2 -83 7 0 6 81 6 140 -2z m5417 8 c-3 -3
-12 -4 -19 -1 -8 3 -5 6 6 6 11 1 17 -2 13 -5z m-4117 -17 c0 -5 -7 -7 -15 -4
-8 4 -17 2 -20 -3 -8 -13 -55 -13 -55 -1 0 5 8 12 18 14 28 7 72 4 72 -6z m70
2 c0 -3 17 -4 37 -2 40 4 96 -14 87 -28 -3 -5 -9 -7 -13 -5 -4 3 -35 6 -69 7
-34 1 -62 6 -62 11 0 4 -3 7 -7 7 -17 -3 -33 1 -33 9 0 4 14 8 30 7 17 0 30
-3 30 -6z m1837 5 c-3 -3 -12 -4 -19 -1 -8 3 -5 6 6 6 11 1 17 -2 13 -5z m271
-1 c-49 -2 -127 -2 -175 0 -49 1 -9 3 87 3 96 0 136 -2 88 -3z m140 0 c-10 -2
-26 -2 -35 0 -10 3 -2 5 17 5 19 0 27 -2 18 -5z m-4285 -10 c-7 -2 -19 -2 -25
0 -7 3 -2 5 12 5 14 0 19 -2 13 -5z m800 0 c-7 -2 -19 -2 -25 0 -7 3 -2 5 12
5 14 0 19 -2 13 -5z m1034 1 c-3 -3 -12 -4 -19 -1 -8 3 -5 6 6 6 11 1 17 -2
13 -5z m1276 -1 c-7 -2 -21 -2 -30 0 -10 3 -4 5 12 5 17 0 24 -2 18 -5z m2194
1 c-3 -3 -12 -4 -19 -1 -8 3 -5 6 6 6 11 1 17 -2 13 -5z m473 -10 c8 -1 42 -3
75 -3 43 -1 56 -4 45 -11 -8 -5 -10 -10 -4 -10 5 0 16 6 23 13 10 9 15 9 18 0
3 -7 26 -10 71 -7 46 3 62 1 52 -6 -16 -10 -232 -14 -242 -4 -4 3 -66 8 -139
10 -73 3 -140 8 -148 12 -9 4 -49 7 -88 7 -40 0 -73 4 -73 8 0 7 370 -1 410
-9z m-5652 -1 c-10 -2 -28 -2 -40 0 -13 2 -5 4 17 4 22 1 32 -1 23 -4z m850 0
c-16 -2 -40 -2 -55 0 -16 2 -3 4 27 4 30 0 43 -2 28 -4z m6100 0 c-10 -2 -26
-2 -35 0 -10 3 -2 5 17 5 19 0 27 -2 18 -5z m-6831 -9 c-3 -3 -12 -4 -19 -1
-8 3 -5 6 6 6 11 1 17 -2 13 -5z m2788 -9 c33 -3 119 -7 190 -10 72 -3 191
-10 265 -16 74 -5 156 -10 183 -11 26 -1 47 -6 47 -9 0 -4 -58 -7 -130 -6 -71
1 -130 6 -130 10 0 5 -23 7 -50 5 -28 -1 -50 1 -50 7 0 5 -5 4 -12 -3 -7 -7
-37 -12 -67 -12 -35 0 -51 4 -43 9 10 6 8 10 -8 14 -16 4 -20 2 -16 -9 7 -17
-6 -18 -22 -2 -9 9 -12 9 -12 0 0 -9 -6 -8 -22 2 -25 16 -160 23 -192 10 -12
-5 -17 -4 -13 3 3 5 0 10 -8 10 -8 0 -12 -4 -9 -9 3 -4 -6 -8 -20 -8 -14 0
-26 6 -26 13 0 8 -3 8 -8 2 -4 -6 -14 -10 -22 -9 -8 0 -48 2 -87 2 -46 1 -73
6 -73 13 0 7 10 9 25 5 15 -4 25 -2 25 4 0 10 134 7 285 -5z m-3268 -1 c-3 -3
-12 -4 -19 -1 -8 3 -5 6 6 6 11 1 17 -2 13 -5z m2013 -15 c230 -14 254 -17
258 -29 3 -7 9 -7 20 2 10 7 13 8 9 3 -6 -6 24 -14 80 -21 80 -10 83 -11 33
-13 -30 0 -93 4 -140 9 -47 6 -114 13 -150 16 -77 6 -92 8 -105 15 -5 3 -35 5
-65 4 -30 -1 -65 2 -77 6 -13 5 -23 4 -25 -2 -3 -9 -606 6 -633 16 -5 2 125 1
289 -2 232 -5 297 -4 292 6 -6 8 -1 10 16 7 12 -3 102 -11 198 -17z m468 14
c-10 -2 -26 -2 -35 0 -10 3 -2 5 17 5 19 0 27 -2 18 -5z m88 -11 c-27 -2 -52
0 -57 5 -4 4 18 6 49 3 l57 -5 -49 -3z m343 1 c3 -2 -12 -2 -31 -1 -20 2 -34
6 -31 11 4 6 52 -1 62 -10z m1174 10 c-13 -2 -35 -2 -50 0 -16 2 -5 4 22 4 28
0 40 -2 28 -4z m420 0 c-13 -2 -35 -2 -50 0 -16 2 -5 4 22 4 28 0 40 -2 28 -4z
m1847 -8 c0 -8 -4 -15 -10 -15 -5 0 -7 7 -4 15 4 8 8 15 10 15 2 0 4 -7 4 -15z
m55 5 c3 -6 -1 -7 -9 -4 -18 7 -21 14 -7 14 6 0 13 -4 16 -10z m628 3 c-7 -2
-19 -2 -25 0 -7 3 -2 5 12 5 14 0 19 -2 13 -5z m-7720 -10 c-13 -2 -33 -2 -45
0 -13 2 -3 4 22 4 25 0 35 -2 23 -4z m4940 0 c-23 -2 -64 -2 -90 0 -26 2 -7 3
42 3 50 0 71 -1 48 -3z m2950 0 c-7 -2 -19 -2 -25 0 -7 3 -2 5 12 5 14 0 19
-2 13 -5z m-4516 -9 c-3 -3 -12 -4 -19 -1 -8 3 -5 6 6 6 11 1 17 -2 13 -5z
m91 -1 c-16 -2 -40 -2 -55 0 -16 2 -3 4 27 4 30 0 43 -2 28 -4z m3539 1 c-3
-3 -12 -4 -19 -1 -8 3 -5 6 6 6 11 1 17 -2 13 -5z m-5877 -14 c0 -5 -7 -10
-15 -10 -8 0 -15 5 -15 10 0 6 7 10 15 10 8 0 15 -4 15 -10z m5260 -3 c0 -7
-11 -14 -25 -15 -24 -2 -32 8 -18 21 11 12 43 8 43 -6z m43 6 c-7 -2 -19 -2
-25 0 -7 3 -2 5 12 5 14 0 19 -2 13 -5z m-4704 -19 c10 -9 -45 -3 -59 6 -11 7
-5 8 20 4 19 -4 37 -8 39 -10z m1424 9 c-7 -2 -21 -2 -30 0 -10 3 -4 5 12 5
17 0 24 -2 18 -5z m1787 -9 c0 -2 -7 -4 -15 -4 -8 0 -15 4 -15 10 0 5 7 7 15
4 8 -4 15 -8 15 -10z m1530 6 c0 -5 -5 -10 -11 -10 -5 0 -7 5 -4 10 3 6 8 10
11 10 2 0 4 -4 4 -10z m309 -6 c2 -2 -63 -4 -145 -3 -82 1 -138 4 -124 8 25 7
261 3 269 -5z m-4949 2 c0 -11 -19 -15 -25 -6 -3 5 1 10 9 10 9 0 16 -2 16 -4z
m1961 -17 c11 -5 19 -6 19 -2 0 8 116 7 182 0 15 -2 25 0 22 5 -3 4 6 8 20 8
14 0 26 -3 26 -7 0 -5 44 -8 97 -8 91 0 263 -10 358 -20 35 -4 165 -11 375
-20 109 -4 107 -4 90 -15 -8 -5 -22 -8 -30 -5 -8 2 -98 7 -200 11 -102 3 -264
10 -360 14 -96 3 -287 8 -425 9 -208 2 -438 14 -372 20 10 0 16 5 12 10 -3 5
3 11 12 13 32 7 155 -2 174 -13z m886 15 c-3 -3 -12 -4 -19 -1 -8 3 -5 6 6 6
11 1 17 -2 13 -5z m383 -6 c0 -14 -15 -15 -40 -1 l-25 13 33 -2 c17 -1 32 -6
32 -10z m40 8 c0 -2 -7 -6 -15 -10 -8 -3 -15 -1 -15 4 0 6 7 10 15 10 8 0 15
-2 15 -4z m47 -2 c-3 -3 -12 -4 -19 -1 -8 3 -5 6 6 6 11 1 17 -2 13 -5z m903
-4 c43 -5 -29 -6 -170 -3 -135 3 -247 7 -249 9 -7 7 341 2 419 -6z m383 3 c-7
-2 -19 -2 -25 0 -7 3 -2 5 12 5 14 0 19 -2 13 -5z m-4294 -13 c-23 -14 -82
-22 -75 -11 4 5 -4 12 -16 14 -13 2 6 5 42 5 44 1 60 -2 49 -8z m3398 4 c-3
-3 -12 -4 -19 -1 -8 3 -5 6 6 6 11 1 17 -2 13 -5z m1400 0 c-3 -3 -12 -4 -19
-1 -8 3 -5 6 6 6 11 1 17 -2 13 -5z m-4932 -14 c3 -6 -1 -7 -9 -4 -18 7 -21
14 -7 14 6 0 13 -4 16 -10z m7828 3 c-7 -2 -19 -2 -25 0 -7 3 -2 5 12 5 14 0
19 -2 13 -5z m-2650 -10 c-7 -2 -19 -2 -25 0 -7 3 -2 5 12 5 14 0 19 -2 13 -5z
m85 0 c-10 -2 -28 -2 -40 0 -13 2 -5 4 17 4 22 1 32 -1 23 -4z m52 -3 c8 -5
11 -10 5 -10 -5 0 -17 5 -25 10 -8 5 -10 10 -5 10 6 0 17 -5 25 -10z m-6552
-7 c-10 -2 -26 -2 -35 0 -10 3 -2 5 17 5 19 0 27 -2 18 -5z m5232 -13 c58 -8
54 -8 -40 -5 -58 3 -139 5 -180 5 -48 0 -70 3 -61 9 16 10 183 5 281 -9z m323
13 c-7 -2 -19 -2 -25 0 -7 3 -2 5 12 5 14 0 19 -2 13 -5z m70 0 c-7 -2 -19 -2
-25 0 -7 3 -2 5 12 5 14 0 19 -2 13 -5z m285 0 c-10 -2 -26 -2 -35 0 -10 3 -2
5 17 5 19 0 27 -2 18 -5z m730 0 c-10 -2 -26 -2 -35 0 -10 3 -2 5 17 5 19 0
27 -2 18 -5z m86 -2 c3 -4 -6 -6 -19 -3 -14 2 -25 6 -25 8 0 8 39 4 44 -5z
m-5264 -16 c11 -13 7 -15 -31 -13 -37 1 -39 2 -11 5 18 2 30 9 27 14 -10 14 1
11 15 -6z m270 5 c0 -5 -4 -10 -10 -10 -5 0 -10 5 -10 10 0 6 5 10 10 10 6 0
10 -4 10 -10z m328 -5 c4 -4 -5 -5 -20 -3 -16 3 -28 2 -28 -3 0 -4 15 -10 33
-12 17 -3 -35 -3 -118 0 -82 3 -154 9 -159 13 -7 7 81 6 199 -4 23 -1 35 2 35
10 0 14 45 13 58 -1z m-678 -5 c0 -5 -5 -10 -11 -10 -5 0 -7 5 -4 10 3 6 8 10
11 10 2 0 4 -4 4 -10z m235 -15 c50 -4 92 -9 95 -12 9 -10 -215 8 -225 18 -7
7 -4 8 8 4 11 -5 17 -2 17 6 0 10 2 11 8 2 4 -6 47 -14 97 -18z m631 18 c-4
-4 -39 -7 -79 -6 -47 1 -63 -1 -47 -6 14 -4 63 -9 110 -10 47 -1 88 -5 92 -9
8 -7 -183 -5 -218 3 -12 3 -24 12 -28 20 -4 13 9 15 86 15 50 0 88 -3 84 -7z
m2014 -14 c0 -5 -7 -9 -15 -9 -15 0 -20 12 -9 23 8 8 24 -1 24 -14z m373 14
c-7 -2 -19 -2 -25 0 -7 3 -2 5 12 5 14 0 19 -2 13 -5z m2650 0 c-7 -2 -21 -2
-30 0 -10 3 -4 5 12 5 17 0 24 -2 18 -5z m-5946 -9 c-3 -3 -12 -4 -19 -1 -8 3
-5 6 6 6 11 1 17 -2 13 -5z m976 -1 c-7 -2 -19 -2 -25 0 -7 3 -2 5 12 5 14 0
19 -2 13 -5z m70 0 c-7 -2 -21 -2 -30 0 -10 3 -4 5 12 5 17 0 24 -2 18 -5z
m292 -3 c3 -5 1 -10 -4 -10 -6 0 -11 5 -11 10 0 6 2 10 4 10 3 0 8 -4 11 -10z
m4948 3 c-7 -2 -19 -2 -25 0 -7 3 -2 5 12 5 14 0 19 -2 13 -5z m-1963 -13 c0
-5 -2 -10 -4 -10 -3 0 -8 5 -11 10 -3 6 -1 10 4 10 6 0 11 -4 11 -10z m100 6
c0 -2 -9 -6 -20 -9 -11 -3 -20 -1 -20 4 0 5 9 9 20 9 11 0 20 -2 20 -4z m56
-5 c-4 -5 0 -12 6 -14 8 -3 6 -6 -4 -6 -10 -1 -18 6 -18 14 0 8 5 15 11 15 5
0 8 -4 5 -9z m-2713 -8 c-46 -2 -120 -2 -165 0 -46 1 -9 3 82 3 91 0 128 -2
83 -3z m1210 0 c-7 -2 -21 -2 -30 0 -10 3 -4 5 12 5 17 0 24 -2 18 -5z m480 0
c-7 -2 -19 -2 -25 0 -7 3 -2 5 12 5 14 0 19 -2 13 -5z m52 -3 c3 -6 -1 -7 -9
-4 -18 7 -21 14 -7 14 6 0 13 -4 16 -10z m1160 0 c-3 -5 -12 -10 -18 -10 -7 0
-6 4 3 10 19 12 23 12 15 0z m90 0 c3 -6 -1 -7 -9 -4 -18 7 -21 14 -7 14 6 0
13 -4 16 -10z m-6012 -7 c-7 -2 -19 -2 -25 0 -7 3 -2 5 12 5 14 0 19 -2 13 -5z
m1700 0 c-7 -2 -21 -2 -30 0 -10 3 -4 5 12 5 17 0 24 -2 18 -5z m88 -11 c-24
-2 -47 0 -52 5 -4 4 15 6 44 3 l52 -5 -44 -3z m3022 11 c-7 -2 -19 -2 -25 0
-7 3 -2 5 12 5 14 0 19 -2 13 -5z m60 0 c-7 -2 -21 -2 -30 0 -10 3 -4 5 12 5
17 0 24 -2 18 -5z m220 -2 c20 -1 37 -4 37 -8 0 -10 -228 2 -238 12 -4 4 31 5
78 2 47 -3 102 -6 123 -6z m704 3 c-3 -3 -12 -4 -19 -1 -8 3 -5 6 6 6 11 1 17
-2 13 -5z m-5663 -13 c4 -5 -3 -7 -14 -4 -23 6 -26 13 -6 13 8 0 17 -4 20 -9z
m1733 3 c-3 -3 -12 -4 -19 -1 -8 3 -5 6 6 6 11 1 17 -2 13 -5z m1118 -9 c21
-7 -222 -4 -260 4 -23 4 23 6 105 3 80 -2 150 -5 155 -7z m802 9 c-3 -3 -12
-4 -19 -1 -8 3 -5 6 6 6 11 1 17 -2 13 -5z m286 -3 c9 -1 17 -5 17 -10 0 -5
-12 -8 -27 -6 -16 2 -45 4 -66 4 -21 1 -36 4 -34 9 3 4 25 6 49 5 23 -1 51 -2
61 -2z m-1706 -15 c4 -3 -18 -6 -48 -5 -33 0 -47 3 -35 8 20 8 74 6 83 -3z
m33 4 c0 -5 -4 -10 -10 -10 -5 0 -10 5 -10 10 0 6 5 10 10 10 6 0 10 -4 10
-10z m3147 4 c-3 -3 -12 -4 -19 -1 -8 3 -5 6 6 6 11 1 17 -2 13 -5z m56 -1
c-7 -2 -21 -2 -30 0 -10 3 -4 5 12 5 17 0 24 -2 18 -5z m-5306 -9 c-3 -3 -12
-4 -19 -1 -8 3 -5 6 6 6 11 1 17 -2 13 -5z m831 -1 c-10 -2 -26 -2 -35 0 -10
3 -2 5 17 5 19 0 27 -2 18 -5z m2597 -3 c15 -7 9 -9 -25 -10 -67 -3 -217 1
-375 10 -127 6 -116 7 120 8 143 0 269 -4 280 -8z m2022 3 c-20 -2 -52 -2 -70
0 -17 2 0 4 38 4 39 0 53 -2 32 -4z m-5334 -10 c-13 -2 -35 -2 -50 0 -16 2 -5
4 22 4 28 0 40 -2 28 -4z m74 1 c-3 -3 -12 -4 -19 -1 -8 3 -5 6 6 6 11 1 17
-2 13 -5z m301 -1 c-10 -2 -26 -2 -35 0 -10 3 -2 5 17 5 19 0 27 -2 18 -5z
m49 1 c-3 -3 -12 -4 -19 -1 -8 3 -5 6 6 6 11 1 17 -2 13 -5z m360 0 c-3 -3
-12 -4 -19 -1 -8 3 -5 6 6 6 11 1 17 -2 13 -5z m4211 -1 c-15 -2 -42 -2 -60 0
-18 2 -6 4 27 4 33 0 48 -2 33 -4z m419 1 c-3 -3 -12 -4 -19 -1 -8 3 -5 6 6 6
11 1 17 -2 13 -5z m61 -1 c-10 -2 -26 -2 -35 0 -10 3 -2 5 17 5 19 0 27 -2 18
-5z m49 1 c-3 -3 -12 -4 -19 -1 -8 3 -5 6 6 6 11 1 17 -2 13 -5z m-4933 -16
c-6 -9 -62 -4 -71 6 -4 4 11 5 34 4 23 -2 39 -6 37 -10z m279 5 c-7 -2 -21 -2
-30 0 -10 3 -4 5 12 5 17 0 24 -2 18 -5z m72 -3 c17 -7 15 -9 -12 -9 -18 -1
-33 4 -33 9 0 12 17 12 45 0z m2892 4 c-3 -3 -12 -4 -19 -1 -8 3 -5 6 6 6 11
1 17 -2 13 -5z m70 0 c-3 -3 -12 -4 -19 -1 -8 3 -5 6 6 6 11 1 17 -2 13 -5z
m170 0 c-3 -3 -12 -4 -19 -1 -8 3 -5 6 6 6 11 1 17 -2 13 -5z m156 -14 c5 -4
-15 -6 -45 -3 -69 6 -83 19 -15 15 29 -2 56 -7 60 -12z m875 13 c-16 -2 -40
-2 -55 0 -16 2 -3 4 27 4 30 0 43 -2 28 -4z m-4465 -10 c-7 -2 -19 -2 -25 0
-7 3 -2 5 12 5 14 0 19 -2 13 -5z m44 1 c-3 -3 -12 -4 -19 -1 -8 3 -5 6 6 6
11 1 17 -2 13 -5z m1858 -4 c-3 -5 -11 -10 -16 -10 -6 0 -7 5 -4 10 3 6 11 10
16 10 6 0 7 -4 4 -10z m45 0 c0 -5 -5 -10 -11 -10 -5 0 -7 5 -4 10 3 6 8 10
11 10 2 0 4 -4 4 -10z m65 -1 c-7 -11 -35 -12 -35 -1 0 4 9 8 20 9 11 1 18 -2
15 -8z m282 -13 c5 -5 0 -6 -10 -3 -10 4 -59 7 -108 7 -49 0 -89 3 -89 8 0 10
197 -1 207 -12z m2281 17 c-16 -2 -40 -2 -55 0 -16 2 -3 4 27 4 30 0 43 -2 28
-4z m-3901 -9 c-3 -3 -12 -4 -19 -1 -8 3 -5 6 6 6 11 1 17 -2 13 -5z m3338 -9
c395 -17 802 -26 905 -21 117 6 215 6 303 2 20 -1 37 2 37 6 0 5 10 6 23 4 50
-11 72 -11 69 2 -3 15 10 16 24 2 6 -6 39 -13 74 -16 35 -2 69 -9 76 -14 12
-11 39 12 27 23 -3 4 -1 7 6 7 8 0 10 -7 6 -21 -5 -15 -4 -19 4 -15 6 4 11 2
11 -4 0 -8 -48 -10 -177 -6 -98 3 -317 8 -488 11 -170 3 -344 8 -385 10 -41 3
-205 7 -365 10 -271 5 -544 21 -555 32 -4 5 74 2 405 -12z m693 8 c-16 -2 -40
-2 -55 0 -16 2 -3 4 27 4 30 0 43 -2 28 -4z m-3855 -10 c-18 -2 -48 -2 -65 0
-18 2 -4 4 32 4 36 0 50 -2 33 -4z m2224 -7 c-2 -6 -13 -10 -25 -9 -12 0 -37
1 -54 2 -49 2 -17 17 37 17 28 1 44 -3 42 -10z m1780 7 c-20 -2 -52 -2 -70 0
-17 2 0 4 38 4 39 0 53 -2 32 -4z m663 -1 c0 -11 -39 -12 -45 -1 -4 5 5 9 19
9 14 0 26 -4 26 -8z m-5034 -9 c-7 -7 -97 -5 -105 3 -2 2 22 4 54 4 32 0 55
-3 51 -7z m526 -1 c-27 -3 -31 -6 -22 -17 9 -10 7 -13 -7 -10 -10 2 -47 5 -83
6 l-65 3 60 4 c42 3 54 6 40 12 -13 5 4 7 45 7 36 0 50 -2 32 -5z m1945 2 c-7
-8 -138 -6 -146 1 -2 3 31 5 74 5 43 0 75 -3 72 -6z m153 2 c0 -3 -4 -8 -10
-11 -5 -3 -10 -1 -10 4 0 6 5 11 10 11 6 0 10 -2 10 -4z m66 -9 c4 -4 -2 -7
-14 -7 -11 0 -23 4 -26 8 -6 10 30 9 40 -1z m34 3 c0 -5 -4 -10 -10 -10 -5 0
-10 5 -10 10 0 6 5 10 10 10 6 0 10 -4 10 -10z m40 0 c12 -8 11 -10 -7 -10
-13 0 -23 5 -23 10 0 13 11 13 30 0z m2414 1 c5 -8 -72 -7 -80 2 -2 2 14 4 35
5 22 1 42 -2 45 -7z m-5071 -8 c-13 -2 -35 -2 -50 0 -16 2 -5 4 22 4 28 0 40
-2 28 -4z m217 -1 c0 -5 -37 -7 -82 -5 -121 6 -127 11 -15 12 53 0 97 -3 97
-7z m370 4 c0 -11 -19 -15 -25 -6 -3 5 1 10 9 10 9 0 16 -2 16 -4z m103 -3
c-7 -2 -19 -2 -25 0 -7 3 -2 5 12 5 14 0 19 -2 13 -5z m154 1 c-3 -3 -12 -4
-19 -1 -8 3 -5 6 6 6 11 1 17 -2 13 -5z m140 -10 c9 -9 -6 -11 -61 -10 -56 1
-72 4 -68 14 6 16 111 13 129 -4z m70 10 c-3 -3 -12 -4 -19 -1 -8 3 -5 6 6 6
11 1 17 -2 13 -5z m509 -5 c3 -5 11 -9 17 -9 7 0 6 4 -3 10 -11 7 -5 10 23 10
23 0 36 -4 32 -10 -4 -6 14 -9 47 -8 l53 1 -45 7 c-35 6 -24 7 53 8 54 1 96
-2 93 -6 -2 -4 16 -7 42 -6 26 1 110 -1 187 -6 77 -5 203 -12 280 -15 77 -4
169 -10 205 -15 36 -4 96 -6 133 -5 38 0 71 -3 74 -8 3 -5 9 -3 14 4 7 11 9
10 9 -3 0 -21 -53 -24 -190 -8 -175 19 -405 30 -730 35 -184 3 -353 8 -375 11
-73 10 -72 22 3 22 39 0 74 -4 78 -9z m-1126 -9 c0 -5 -5 -10 -11 -10 -5 0 -7
5 -4 10 3 6 8 10 11 10 2 0 4 -4 4 -10z m46 -3 c4 -4 -2 -7 -14 -7 -12 0 -22
4 -22 9 0 10 26 9 36 -2z m789 -8 c-8 -11 -138 -11 -189 1 -20 5 9 8 82 9 77
1 111 -2 107 -10z m1692 4 c-20 -2 -52 -2 -70 0 -17 2 0 4 38 4 39 0 53 -2 32
-4z m80 1 c-3 -3 -12 -4 -19 -1 -8 3 -5 6 6 6 11 1 17 -2 13 -5z m2016 -3 c10
-1 16 -5 13 -9 -3 -4 -21 -6 -40 -4 -20 2 -34 8 -31 12 3 5 13 7 23 5 9 -2 25
-4 35 -4z m868 -4 c-4 -4 -18 -3 -32 2 -23 9 -22 9 8 8 18 -1 28 -6 24 -10z
m349 -1 c8 -2 -57 -4 -145 -5 -88 0 -165 3 -172 7 -11 7 286 5 317 -2z m-3122
-3 c-10 -2 -26 -2 -35 0 -10 3 -2 5 17 5 19 0 27 -2 18 -5z m49 1 c-3 -3 -12
-4 -19 -1 -8 3 -5 6 6 6 11 1 17 -2 13 -5z m2027 -6 c-8 -12 -122 -10 -129 2
-5 7 17 10 64 8 38 -1 68 -6 65 -10z m51 2 c17 -8 16 -8 -7 -7 -16 1 -28 5
-28 9 0 10 9 9 35 -2z m-5221 -12 c-3 -4 -9 -8 -15 -8 -5 0 -9 4 -9 8 0 5 7 9
15 9 8 0 12 -4 9 -9z m710 4 c5 -8 -62 -7 -71 2 -4 3 10 6 30 6 20 0 38 -3 41
-8z m2504 1 c-10 -2 -28 -2 -40 0 -13 2 -5 4 17 4 22 1 32 -1 23 -4z m508 -2
c109 -6 296 -13 414 -16 118 -4 217 -9 220 -12 10 -11 -799 17 -910 31 -57 7
90 5 276 -3z m1577 2 c-7 -2 -21 -2 -30 0 -10 3 -4 5 12 5 17 0 24 -2 18 -5z
m-5256 -9 c-3 -3 -12 -4 -19 -1 -8 3 -5 6 6 6 11 1 17 -2 13 -5z m70 0 c-3 -3
-12 -4 -19 -1 -8 3 -5 6 6 6 11 1 17 -2 13 -5z m50 0 c-3 -3 -12 -4 -19 -1 -8
3 -5 6 6 6 11 1 17 -2 13 -5z m112 -10 c3 -3 -13 -4 -36 -3 -23 2 -40 6 -38
10 5 7 65 2 74 -7z m46 6 c3 -5 -1 -10 -10 -10 -9 0 -13 5 -10 10 3 6 8 10 10
10 2 0 7 -4 10 -10z m2475 0 c0 -13 -30 -13 -50 0 -11 7 -7 10 18 10 17 0 32
-4 32 -10z m65 0 c4 -6 -7 -10 -24 -10 -17 0 -31 5 -31 10 0 6 11 10 24 10 14
0 28 -4 31 -10z m40 0 c3 -5 -1 -10 -9 -10 -9 0 -16 5 -16 10 0 6 4 10 9 10 6
0 13 -4 16 -10z m2553 3 c-10 -2 -26 -2 -35 0 -10 3 -2 5 17 5 19 0 27 -2 18
-5z m-7995 -10 c-13 -2 -33 -2 -45 0 -13 2 -3 4 22 4 25 0 35 -2 23 -4z m2130
0 c-7 -2 -21 -2 -30 0 -10 3 -4 5 12 5 17 0 24 -2 18 -5z m834 1 c-3 -3 -12
-4 -19 -1 -8 3 -5 6 6 6 11 1 17 -2 13 -5z m40 0 c-3 -3 -12 -4 -19 -1 -8 3
-5 6 6 6 11 1 17 -2 13 -5z m43 -4 c0 -5 -2 -10 -4 -10 -3 0 -8 5 -11 10 -3 6
-1 10 4 10 6 0 11 -4 11 -10z m422 4 c3 -3 44 -7 89 -9 46 -2 100 -7 119 -10
19 -4 57 -8 83 -10 26 -2 61 -6 77 -10 20 -4 30 -3 30 5 0 6 5 8 13 3 11 -7
64 -11 140 -12 15 0 35 -8 44 -16 14 -15 8 -15 -64 -10 -43 3 -88 7 -98 9 -11
2 -56 7 -100 10 -44 4 -138 11 -210 17 -71 6 -141 10 -154 10 -24 -1 -24 -1
-5 14 21 16 28 18 36 9z m2092 -2 c2 -4 -11 -6 -30 -4 -19 2 -34 6 -34 8 0 8
59 4 64 -4z m2704 1 c-21 -2 -55 -2 -75 0 -21 2 -4 4 37 4 41 0 58 -2 38 -4z
m-8155 -10 c-7 -2 -19 -2 -25 0 -7 3 -2 5 12 5 14 0 19 -2 13 -5z m2190 0 c-7
-2 -19 -2 -25 0 -7 3 -2 5 12 5 14 0 19 -2 13 -5z m1820 0 c-7 -2 -21 -2 -30
0 -10 3 -4 5 12 5 17 0 24 -2 18 -5z m1530 0 c-13 -2 -35 -2 -50 0 -16 2 -5 4
22 4 28 0 40 -2 28 -4z m47 -3 c0 -5 -4 -10 -10 -10 -5 0 -10 5 -10 10 0 6 5
10 10 10 6 0 10 -4 10 -10z m1237 4 c-3 -3 -12 -4 -19 -1 -8 3 -5 6 6 6 11 1
17 -2 13 -5z m1526 -1 c-24 -2 -62 -2 -85 0 -24 2 -5 4 42 4 47 0 66 -2 43 -4z
m-6468 -17 c152 -9 480 -37 484 -42 7 -7 -90 -4 -184 6 -49 5 -144 12 -210 16
-66 4 -129 8 -140 9 -11 1 -53 3 -92 4 -40 0 -73 4 -73 9 0 7 72 7 215 -2z
m2242 8 c-3 -3 -12 -4 -19 -1 -8 3 -5 6 6 6 11 1 17 -2 13 -5z m1556 -1 c-7
-2 -21 -2 -30 0 -10 3 -4 5 12 5 17 0 24 -2 18 -5z m72 -3 c4 -6 -2 -9 -14 -7
-29 4 -39 17 -13 17 11 0 24 -5 27 -10z m1172 4 c-3 -3 -12 -4 -19 -1 -8 3 -5
6 6 6 11 1 17 -2 13 -5z m243 -3 c27 -5 -8 -6 -85 -3 -71 3 -132 6 -134 8 -8
7 174 3 219 -5z m-4593 -7 c-3 -3 -12 -4 -19 -1 -8 3 -5 6 6 6 11 1 17 -2 13
-5z m1650 0 c-3 -3 -12 -4 -19 -1 -8 3 -5 6 6 6 11 1 17 -2 13 -5z m1611 -1
c-10 -2 -28 -2 -40 0 -13 2 -5 4 17 4 22 1 32 -1 23 -4z m327 -3 c68 -8 68 -8
-27 -6 -54 1 -98 -1 -98 -4 0 -3 -25 -3 -55 -2 -30 2 -55 8 -55 13 0 11 135
10 235 -1z m1133 3 c-10 -2 -26 -2 -35 0 -10 3 -2 5 17 5 19 0 27 -2 18 -5z
m-4553 -13 c13 -6 15 -9 5 -9 -8 0 -22 4 -30 9 -18 12 -2 12 25 0z m1545 0 c0
-3 24 -4 52 -4 29 1 58 -1 63 -4 10 -7 19 -8 143 -13 40 -1 75 -6 78 -11 3 -4
-52 -5 -123 -2 -70 4 -129 10 -131 13 -1 3 -55 6 -120 6 -64 0 -133 3 -152 6
-19 4 4 6 53 4 48 -2 89 0 91 4 5 8 46 9 46 1z m567 4 c-3 -3 -12 -4 -19 -1
-8 3 -5 6 6 6 11 1 17 -2 13 -5z m2703 2 c0 -11 -19 -15 -25 -6 -3 5 1 10 9
10 9 0 16 -2 16 -4z m149 -12 c10 -9 -8 -11 -71 -6 -38 2 -68 8 -68 12 0 7
131 1 139 -6z m-4899 -4 c13 -9 13 -10 0 -10 -8 0 -22 5 -30 10 -13 9 -13 10
0 10 8 0 22 -5 30 -10z m220 -5 c47 -3 137 -7 201 -10 64 -2 130 -7 145 -10
16 -3 82 -5 147 -5 64 -1 117 -5 117 -10 0 -5 -15 -11 -32 -13 -32 -4 -32 -4
5 -5 22 -1 37 3 37 9 0 12 107 8 350 -15 30 -3 88 -6 128 -7 39 -1 72 -5 72
-9 0 -6 111 -13 195 -11 16 0 17 -2 5 -10 -14 -9 -72 -8 -320 6 -47 2 -143 7
-215 10 -143 7 -591 33 -670 40 -44 4 -193 17 -220 20 -104 11 -145 18 -145
24 0 8 17 7 200 -4z m2050 5 l65 -7 -80 0 c-44 -1 -105 2 -135 7 l-55 7 70 0
c39 1 99 -3 135 -7z m1257 -9 c-9 -11 -9 -13 0 -8 6 4 14 3 18 -3 4 -6 -26
-10 -84 -10 -64 0 -91 4 -91 12 0 9 -3 9 -12 0 -14 -14 -32 -16 -23 -3 3 5 -3
11 -12 14 -16 3 47 1 152 -6 17 -1 29 3 28 8 -1 6 7 11 17 11 15 0 17 -3 7
-15z m128 9 c3 -5 1 -10 -4 -10 -6 0 -11 5 -11 10 0 6 2 10 4 10 3 0 8 -4 11
-10z m1315 1 c0 -4 -13 -8 -30 -7 -39 1 -39 16 0 16 17 0 30 -4 30 -9z m50 -6
c0 -2 -9 -3 -19 -2 -11 0 -18 5 -15 9 4 6 34 0 34 -7z m903 8 c-13 -2 -33 -2
-45 0 -13 2 -3 4 22 4 25 0 35 -2 23 -4z m104 1 c-3 -3 -12 -4 -19 -1 -8 3 -5
6 6 6 11 1 17 -2 13 -5z m-3421 -32 c-7 -6 -256 10 -256 17 0 3 58 2 130 -3
72 -5 128 -11 126 -14z m1564 13 c-3 -5 -9 -8 -15 -6 -5 3 -113 6 -239 8 -126
1 -231 5 -235 8 -3 3 107 5 244 3 163 -2 248 -7 245 -13z m980 3 c0 -4 -7 -8
-15 -8 -8 0 -15 4 -15 8 0 5 7 9 15 9 8 0 15 -4 15 -9z m-2287 -5 c-13 -2 -33
-2 -45 0 -13 2 -3 4 22 4 25 0 35 -2 23 -4z m60 0 c-7 -2 -19 -2 -25 0 -7 3
-2 5 12 5 14 0 19 -2 13 -5z m1445 1 c-9 -9 -178 -11 -178 -2 0 4 41 8 92 8
50 0 89 -3 86 -6z m855 -1 c-7 -2 -19 -2 -25 0 -7 3 -2 5 12 5 14 0 19 -2 13
-5z m1030 0 c-7 -2 -19 -2 -25 0 -7 3 -2 5 12 5 14 0 19 -2 13 -5z m50 0 c-7
-2 -19 -2 -25 0 -7 3 -2 5 12 5 14 0 19 -2 13 -5z m-4295 -16 c8 0 9 -4 3 -10
-11 -11 -141 -15 -141 -4 0 4 -10 12 -22 17 -15 6 6 7 62 4 47 -3 91 -6 98 -7z
m1075 6 c-7 -2 -19 -2 -25 0 -7 3 -2 5 12 5 14 0 19 -2 13 -5z m54 1 c-3 -3
-12 -4 -19 -1 -8 3 -5 6 6 6 11 1 17 -2 13 -5z m1343 -6 c0 -5 -13 -8 -30 -8
-16 0 -30 3 -30 8 0 4 14 7 30 7 17 0 30 -3 30 -7z m-6717 -5 c-13 -2 -35 -2
-50 0 -16 2 -5 4 22 4 28 0 40 -2 28 -4z m97 -9 c0 -2 -7 -4 -15 -4 -8 0 -15
4 -15 10 0 5 7 7 15 4 8 -4 15 -8 15 -10z m5858 9 c-10 -2 -28 -2 -40 0 -13 2
-5 4 17 4 22 1 32 -1 23 -4z m930 0 c-16 -2 -40 -2 -55 0 -16 2 -3 4 27 4 30
0 43 -2 28 -4z m-6730 -10 c-10 -2 -26 -2 -35 0 -10 3 -2 5 17 5 19 0 27 -2
18 -5z m4179 1 c-3 -3 -12 -4 -19 -1 -8 3 -5 6 6 6 11 1 17 -2 13 -5z m1750
-1 c-20 -2 -52 -2 -70 0 -17 2 0 4 38 4 39 0 53 -2 32 -4z m-5839 -10 c-10 -2
-28 -2 -40 0 -13 2 -5 4 17 4 22 1 32 -1 23 -4z m72 -3 c0 -5 -11 -9 -25 -8
-14 1 -25 6 -25 10 0 4 11 8 25 8 14 0 25 -4 25 -10z m5968 3 c-21 -2 -55 -2
-75 0 -21 2 -4 4 37 4 41 0 58 -2 38 -4z m-5862 -10 c-7 -7 -77 -5 -85 3 -2 2
17 4 44 4 27 0 45 -3 41 -7z m4241 1 c-3 -3 -12 -4 -19 -1 -8 3 -5 6 6 6 11 1
17 -2 13 -5z m621 -19 c1 -1 -23 -2 -53 -3 -31 0 -55 4 -55 10 0 6 7 8 15 5 8
-4 17 -2 20 3 4 7 58 -4 73 -15z m1119 19 c-3 -3 -12 -4 -19 -1 -8 3 -5 6 6 6
11 1 17 -2 13 -5z m76 -1 c-7 -2 -19 -2 -25 0 -7 3 -2 5 12 5 14 0 19 -2 13
-5z m65 0 c-10 -2 -26 -2 -35 0 -10 3 -2 5 17 5 19 0 27 -2 18 -5z m49 1 c-3
-3 -12 -4 -19 -1 -8 3 -5 6 6 6 11 1 17 -2 13 -5z m-6090 -10 c-3 -3 -12 -4
-19 -1 -8 3 -5 6 6 6 11 1 17 -2 13 -5z m83 -2 c0 -4 -16 -6 -35 -4 -19 2 -35
6 -35 8 0 2 16 4 35 4 19 0 35 -4 35 -8z m35 -2 c3 -5 1 -10 -4 -10 -6 0 -11
5 -11 10 0 6 2 10 4 10 3 0 8 -4 11 -10z m552 4 c-3 -3 -12 -4 -19 -1 -8 3 -5
6 6 6 11 1 17 -2 13 -5z m3593 -9 c0 -1 -12 -2 -26 -2 -17 0 -22 2 -13 7 10 7
39 3 39 -5z m65 4 c-7 -11 -35 -12 -35 -1 0 4 9 8 20 9 11 1 18 -2 15 -8z
m512 -13 c0 -9 -6 -10 -23 -2 -12 6 -20 14 -18 17 7 11 41 -1 41 -15z m410 17
c-20 -2 -52 -2 -70 0 -17 2 0 4 38 4 39 0 53 -2 32 -4z m-5060 -9 c-3 -3 -12
-4 -19 -1 -8 3 -5 6 6 6 11 1 17 -2 13 -5z m33 -4 c0 -5 -2 -10 -4 -10 -3 0
-8 5 -11 10 -3 6 -1 10 4 10 6 0 11 -4 11 -10z m3973 3 c-7 -2 -19 -2 -25 0
-7 3 -2 5 12 5 14 0 19 -2 13 -5z m1204 1 c-3 -3 -12 -4 -19 -1 -8 3 -5 6 6 6
11 1 17 -2 13 -5z m157 -5 c53 0 96 -4 96 -9 0 -12 -193 -1 -205 12 -7 7 -6 9
2 4 6 -3 55 -7 107 -7z m-4649 -9 c4 -6 -14 -10 -47 -9 -39 0 -48 3 -33 9 28
12 73 12 80 0z m65 -6 c0 -2 -11 -4 -25 -4 -14 0 -25 4 -25 9 0 4 11 6 25 3
14 -2 25 -6 25 -8z m2915 1 c94 -3 190 -7 215 -9 25 -3 69 -5 98 -5 31 -1 52
-5 52 -12 0 -8 -32 -10 -112 -5 -62 3 -156 9 -208 12 -52 3 -105 7 -117 9 -12
3 -70 6 -130 7 -60 1 -95 4 -78 8 17 3 48 5 70 3 22 -1 117 -5 210 -8z m1018
8 c-7 -2 -19 -2 -25 0 -7 3 -2 5 12 5 14 0 19 -2 13 -5z m-3886 -9 c-3 -3 -12
-4 -19 -1 -8 3 -5 6 6 6 11 1 17 -2 13 -5z m96 0 c20 -4 37 -11 37 -16 0 -5
-5 -6 -11 -3 -5 4 -32 7 -60 7 -27 -1 -49 3 -49 9 0 10 29 11 83 3z m3904 0
c-3 -3 -12 -4 -19 -1 -8 3 -5 6 6 6 11 1 17 -2 13 -5z m793 -4 c0 -5 -4 -10
-9 -10 -6 0 -13 5 -16 10 -3 6 1 10 9 10 9 0 16 -4 16 -10z m95 -1 c5 -7 -5
-8 -32 -3 -51 9 -54 14 -10 14 20 0 39 -5 42 -11z m155 -1 c0 -10 -113 -8
-130 2 -7 4 20 7 59 7 39 -1 71 -5 71 -9z m345 2 c13 -6 15 -9 5 -9 -8 0 -22
4 -30 9 -18 12 -2 12 25 0z m-5195 -4 c0 -9 -30 -14 -35 -6 -4 6 3 10 14 10
12 0 21 -2 21 -4z m4997 -2 c-3 -3 -12 -4 -19 -1 -8 3 -5 6 6 6 11 1 17 -2 13
-5z m360 0 c-3 -3 -12 -4 -19 -1 -8 3 -5 6 6 6 11 1 17 -2 13 -5z m118 -4 c-3
-5 -12 -10 -18 -10 -7 0 -6 4 3 10 19 12 23 12 15 0z m593 -4 c3 -3 -62 -6
-144 -5 -82 1 -138 4 -124 8 29 8 259 5 268 -3z m-7491 -2 c-3 -3 -12 -4 -19
-1 -8 3 -5 6 6 6 11 1 17 -2 13 -5z m1576 -1 c3 -5 -18 -7 -46 -5 -86 5 -96 9
-25 11 37 0 69 -2 71 -6z m52 -3 c-3 -5 -12 -7 -20 -3 -21 7 -19 13 6 13 11 0
18 -4 14 -10z m580 1 c69 -6 42 -7 -112 -7 -111 1 -194 4 -185 8 22 9 181 8
297 -1z m2306 0 c-11 -7 -10 -10 5 -14 16 -4 16 -5 -3 -6 -14 -1 -23 5 -23 14
0 8 8 15 18 15 14 0 14 -2 3 -9z m3125 -4 c4 -4 -18 -5 -49 -4 -31 2 -59 6
-63 10 -4 4 18 6 49 4 31 -2 59 -6 63 -10z m69 3 c16 -7 12 -9 -18 -9 -23 -1
-36 3 -32 9 7 12 23 12 50 0z m65 -10 c0 -5 -2 -10 -4 -10 -3 0 -8 5 -11 10
-3 6 -1 10 4 10 6 0 11 -4 11 -10z m-5332 -7 c-21 -2 -57 -2 -80 0 -24 2 -7 4
37 4 44 0 63 -2 43 -4z m240 -10 c-26 -2 -71 -2 -100 0 -29 2 -8 3 47 3 55 0
79 -1 53 -3z m412 -7 c19 -1 -48 -3 -150 -4 -102 -1 -190 2 -197 6 -10 6 267
5 347 -2z m903 5 c15 -1 27 -6 27 -12 0 -6 -9 -8 -22 -3 -13 4 -39 6 -58 6
-19 -1 -48 2 -65 8 -24 7 -18 8 30 5 33 -2 72 -4 88 -4z m-3006 -7 c-3 -3 -12
-4 -19 -1 -8 3 -5 6 6 6 11 1 17 -2 13 -5z m2190 0 c-3 -3 -12 -4 -19 -1 -8 3
-5 6 6 6 11 1 17 -2 13 -5z m1556 -4 c3 -3 -10 -6 -29 -8 -20 -1 -33 2 -30 6
5 9 51 10 59 2z m560 3 c-7 -2 -19 -2 -25 0 -7 3 -2 5 12 5 14 0 19 -2 13 -5z
m-4026 -9 c-3 -3 -12 -4 -19 -1 -8 3 -5 6 6 6 11 1 17 -2 13 -5z m1408 -14
c24 -5 -40 -7 -158 -7 -109 0 -200 4 -203 8 -2 5 -18 6 -34 4 -16 -2 -33 1
-36 6 -7 12 364 2 431 -11z m668 13 c-7 -2 -21 -2 -30 0 -10 3 -4 5 12 5 17 0
24 -2 18 -5z m182 -3 c-3 -5 -1 -10 4 -10 6 0 11 4 11 9 0 4 11 6 25 3 32 -6
32 -17 0 -18 -14 -1 -36 -5 -50 -8 -19 -5 -23 -3 -19 8 5 12 -8 16 -68 19
l-73 3 88 2 c57 1 86 -2 82 -8z m793 1 c11 -7 10 -9 -3 -14 -9 -4 -13 -3 -10
2 3 6 -12 12 -32 14 l-38 4 35 1 c19 1 41 -2 48 -7z m567 -1 c8 -13 -5 -13
-25 0 -13 8 -13 10 2 10 9 0 20 -4 23 -10z m-5801 -8 c3 -5 -1 -9 -9 -9 -8 0
-12 4 -9 9 3 4 7 8 9 8 2 0 6 -4 9 -8z m4546 4 c0 -3 -4 -8 -10 -11 -5 -3 -10
-1 -10 4 0 6 5 11 10 11 6 0 10 -2 10 -4z m-873 -12 c-3 -3 -12 -4 -19 -1 -8
3 -5 6 6 6 11 1 17 -2 13 -5z m707 -2 c4 -7 -199 -5 -219 3 -5 2 40 4 102 4
61 1 114 -2 117 -7z m-564 -12 c0 -5 -5 -10 -11 -10 -5 0 -7 5 -4 10 3 6 8 10
11 10 2 0 4 -4 4 -10z m-3297 -7 c-7 -2 -19 -2 -25 0 -7 3 -2 5 12 5 14 0 19
-2 13 -5z m3360 0 c-13 -2 -23 -9 -23 -14 0 -5 -5 -9 -11 -9 -5 0 -8 4 -5 9 4
5 0 12 -6 14 -7 3 5 5 27 5 22 0 30 -3 18 -5z m-310 -10 c-13 -2 -35 -2 -50 0
-16 2 -5 4 22 4 28 0 40 -2 28 -4z m-1606 -9 c-3 -3 -12 -4 -19 -1 -8 3 -5 6
6 6 11 1 17 -2 13 -5z m43 -4 c0 -5 -2 -10 -4 -10 -3 0 -8 5 -11 10 -3 6 -1
10 4 10 6 0 11 -4 11 -10z m1977 4 c-3 -3 -12 -4 -19 -1 -8 3 -5 6 6 6 11 1
17 -2 13 -5z m38 -5 c11 -17 -1 -21 -15 -4 -8 9 -8 15 -2 15 6 0 14 -5 17 -11z
m-1832 -6 c-7 -2 -21 -2 -30 0 -10 3 -4 5 12 5 17 0 24 -2 18 -5z m1944 -6 c7
-4 24 -5 39 -1 20 5 25 4 19 -5 -5 -9 -21 -11 -49 -6 -22 3 -49 6 -58 6 -10 0
-18 4 -18 8 0 9 51 8 67 -2z m93 -7 c0 -5 -2 -10 -4 -10 -3 0 -8 5 -11 10 -3
6 -1 10 4 10 6 0 11 -4 11 -10z m88 3 c-16 -2 -40 -2 -55 0 -16 2 -3 4 27 4
30 0 43 -2 28 -4z m605 0 c-7 -2 -19 -2 -25 0 -7 3 -2 5 12 5 14 0 19 -2 13
-5z m-3806 -9 c-3 -3 -12 -4 -19 -1 -8 3 -5 6 6 6 11 1 17 -2 13 -5z m46 -1
c-7 -2 -19 -2 -25 0 -7 3 -2 5 12 5 14 0 19 -2 13 -5z m3280 0 c-7 -2 -19 -2
-25 0 -7 3 -2 5 12 5 14 0 19 -2 13 -5z m-3176 -9 c-3 -3 -12 -4 -19 -1 -8 3
-5 6 6 6 11 1 17 -2 13 -5z m60 0 c-3 -3 -12 -4 -19 -1 -8 3 -5 6 6 6 11 1 17
-2 13 -5z m203 -10 c0 -2 -24 -4 -52 -3 -38 1 -46 3 -28 8 24 7 80 3 80 -5z
m163 3 c4 2 7 -1 7 -7 0 -8 -19 -10 -62 -6 -35 3 -71 5 -80 5 -10 1 -18 5 -18
9 0 4 33 5 73 1 39 -4 75 -5 80 -2z m1564 7 c-3 -3 -12 -4 -19 -1 -8 3 -5 6 6
6 11 1 17 -2 13 -5z m243 -11 c7 -7 -149 3 -157 11 -3 3 29 3 73 0 43 -3 81
-8 84 -11z m-2087 0 c-7 -2 -19 -2 -25 0 -7 3 -2 5 12 5 14 0 19 -2 13 -5z
m353 -3 c8 0 14 -4 14 -9 0 -11 -49 -1 -57 12 -4 7 0 8 11 4 10 -4 24 -7 32
-7z m2014 -2 c14 -4 -40 -5 -120 -2 -79 3 -147 7 -150 10 -8 8 242 1 270 -8z
m-1947 -5 c-7 -2 -19 -2 -25 0 -7 3 -2 5 12 5 14 0 19 -2 13 -5z m3492 -13
c-2 -4 9 -7 26 -8 17 0 34 -4 38 -7 3 -4 -29 -5 -72 -2 -94 6 -125 24 -43 25
31 0 54 -3 51 -8z m-1272 -17 c-7 -2 -19 -2 -25 0 -7 3 -2 5 12 5 14 0 19 -2
13 -5z m317 -9 c156 -10 118 -17 -50 -10 -164 7 -242 14 -249 22 -5 4 104 0
299 -12z m1588 9 c-10 -2 -28 -2 -40 0 -13 2 -5 4 17 4 22 1 32 -1 23 -4z m49
1 c-3 -3 -12 -4 -19 -1 -8 3 -5 6 6 6 11 1 17 -2 13 -5z m1750 0 c-3 -3 -12
-4 -19 -1 -8 3 -5 6 6 6 11 1 17 -2 13 -5z m1020 0 c-3 -3 -12 -4 -19 -1 -8 3
-5 6 6 6 11 1 17 -2 13 -5z m-2230 -17 c17 -1 29 -5 27 -8 -5 -8 -340 0 -449
11 -64 6 266 4 422 -3z m-3324 -4 c-7 -2 -19 -2 -25 0 -7 3 -2 5 12 5 14 0 19
-2 13 -5z m1317 3 c0 -2 -13 -6 -30 -8 -16 -3 -30 -1 -30 4 0 4 14 8 30 8 17
0 30 -2 30 -4z m84 -7 c-5 -9 -64 -9 -64 0 0 5 15 8 34 7 19 0 32 -4 30 -7z
m53 -15 c-7 -7 -37 7 -37 17 0 6 9 5 21 -1 11 -7 19 -14 16 -16z m130 20 c-3
-3 -12 -4 -19 -1 -8 3 -5 6 6 6 11 1 17 -2 13 -5z m2078 -3 c3 -5 1 -12 -5
-16 -5 -3 -10 1 -10 9 0 18 6 21 15 7z m1485 -10 c51 -13 10 -11 -120 4 l-115
14 100 -5 c55 -2 116 -9 135 -13z m-4942 2 c-26 -2 -71 -2 -100 0 -29 2 -8 3
47 3 55 0 79 -1 53 -3z m182 -7 c8 -2 -19 -4 -60 -4 -41 0 -67 3 -57 6 16 7
82 5 117 -2z m3530 -8 c10 -6 -14 -7 -70 -4 -47 3 -104 6 -128 6 -28 0 -41 4
-37 10 8 13 212 3 235 -12z m-3477 5 c-7 -2 -19 -2 -25 0 -7 3 -2 5 12 5 14 0
19 -2 13 -5z m4812 -3 c7 -12 -22 -12 -50 0 -17 7 -15 9 12 9 17 1 35 -3 38
-9z m-1068 -12 c51 -2 93 -6 93 -11 0 -4 -46 -4 -102 -1 -57 4 -112 6 -123 6
-16 -1 -17 1 -5 8 8 5 22 8 30 5 8 -2 57 -5 107 -7z m1131 5 c-10 -2 -26 -2
-35 0 -10 3 -2 5 17 5 19 0 27 -2 18 -5z m-3553 -17 c33 -3 103 -8 155 -11
214 -13 244 -16 249 -22 8 -7 -268 3 -439 17 -159 13 -167 14 -177 24 -7 7 32
5 212 -8z m2750 -4 c-3 -3 -11 0 -18 7 -9 10 -8 11 6 5 10 -3 15 -9 12 -12z
m973 11 c-21 -2 -55 -2 -75 0 -21 2 -4 4 37 4 41 0 58 -2 38 -4z m-942 -18
c-8 -8 -30 -14 -48 -13 l-33 1 33 4 c17 2 32 8 32 14 0 5 7 9 16 9 14 0 14 -2
0 -15z m1077 8 c-7 -2 -19 -2 -25 0 -7 3 -2 5 12 5 14 0 19 -2 13 -5z m-2935
-18 c103 -9 195 -20 206 -26 13 -7 16 -7 12 0 -4 6 -1 9 6 6 17 -6 81 -13 202
-22 78 -5 92 -8 61 -13 -22 -3 -83 -2 -135 3 -52 4 -104 8 -115 7 -42 0 -354
31 -430 44 -114 20 -42 20 193 1z m1959 2 c3 -4 -18 -7 -48 -6 -37 1 -46 3
-30 8 29 8 68 7 78 -2z m-5934 -24 c-13 -2 -35 -2 -50 0 -16 2 -5 4 22 4 28 0
40 -2 28 -4z m94 -9 c-3 -3 -12 -4 -19 -1 -8 3 -5 6 6 6 11 1 17 -2 13 -5z
m110 -10 c-3 -3 -12 -4 -19 -1 -8 3 -5 6 6 6 11 1 17 -2 13 -5z m200 -10 c-3
-3 -12 -4 -19 -1 -8 3 -5 6 6 6 11 1 17 -2 13 -5z m3353 -8 c213 -14 355 -29
358 -37 2 -5 8 -9 13 -9 6 0 8 4 5 8 -3 5 1 9 9 9 8 0 12 -4 9 -9 -3 -4 0 -8
5 -8 6 0 11 5 11 11 0 5 4 8 10 4 5 -3 7 -11 4 -18 -3 -10 -21 -11 -72 -5 -37
4 -114 12 -172 17 -237 23 -315 33 -323 40 -4 5 9 7 30 5 21 -2 72 -5 113 -8z
m1586 -6 c23 -5 51 -8 63 -5 11 2 21 0 21 -5 0 -14 -364 10 -378 25 -9 9 242
-4 294 -15z m1103 -6 c8 -8 -145 -2 -169 6 -14 5 15 6 70 3 52 -3 97 -7 99 -9z
m121 -4 c0 -6 -23 -9 -52 -8 l-53 1 50 7 c28 4 51 8 53 8 1 1 2 -2 2 -8z
m-6435 -10 c-3 -5 -16 -10 -28 -9 -20 1 -20 2 3 9 14 4 26 8 28 9 2 1 0 -3 -3
-9z m833 3 c-10 -2 -26 -2 -35 0 -10 3 -2 5 17 5 19 0 27 -2 18 -5z m110 0
c-10 -2 -26 -2 -35 0 -10 3 -2 5 17 5 19 0 27 -2 18 -5z m4428 -11 c-21 -2
-42 0 -47 5 -4 4 13 6 39 3 l47 -5 -39 -3z m1224 6 c0 -8 -139 -2 -149 7 -3 3
29 5 72 4 42 -2 77 -6 77 -11z m-5243 -4 c-3 -3 -12 -4 -19 -1 -8 3 -5 6 6 6
11 1 17 -2 13 -5z m40 0 c-3 -3 -12 -4 -19 -1 -8 3 -5 6 6 6 11 1 17 -2 13 -5z
m61 -12 c2 -7 -2 -10 -12 -6 -9 3 -16 11 -16 16 0 13 23 5 28 -10z m60 -7 c-3
-3 -9 2 -12 12 -6 14 -5 15 5 6 7 -7 10 -15 7 -18z m5209 19 c-3 -3 -12 -4
-19 -1 -8 3 -5 6 6 6 11 1 17 -2 13 -5z m-5153 -16 c-3 -4 -14 -8 -25 -8 -11
0 -18 4 -14 9 3 6 14 9 25 8 10 -1 16 -5 14 -9z m356 -3 c14 -1 47 -3 73 -4
27 0 46 -5 42 -10 -3 -6 -22 -8 -43 -6 -20 2 -113 7 -207 11 -216 8 -205 7
-205 17 0 7 224 2 340 -8z m1077 9 c-3 -3 -12 -4 -19 -1 -8 3 -5 6 6 6 11 1
17 -2 13 -5z m1083 2 c0 -2 -7 -9 -15 -16 -13 -11 -14 -10 -9 4 5 14 24 23 24
12z m44 -8 c-6 -10 -4 -10 7 -2 9 7 25 8 47 2 36 -10 43 -28 11 -28 -11 0 -18
4 -15 8 3 5 -18 7 -46 4 -47 -4 -50 -3 -37 11 17 19 44 23 33 5z m1661 -9 c6
-6 -16 -8 -60 -5 -39 2 -90 5 -115 6 -42 2 -43 3 -15 10 38 10 177 2 190 -11z
m-2330 -9 l80 -7 -75 -1 c-41 0 -156 6 -255 13 l-180 14 175 -6 c96 -3 211 -9
255 -13z m-3102 3 c-7 -2 -19 -2 -25 0 -7 3 -2 5 12 5 14 0 19 -2 13 -5z
m1772 -3 c3 -6 -4 -10 -17 -10 -18 0 -20 2 -8 10 19 12 18 12 25 0z m2125 6
c0 -11 -19 -15 -25 -6 -3 5 1 10 9 10 9 0 16 -2 16 -4z m540 -5 c0 -6 -17 -7
-37 -4 -52 8 -54 13 -5 13 23 0 42 -4 42 -9z m-1207 -8 c-7 -2 -21 -2 -30 0
-10 3 -4 5 12 5 17 0 24 -2 18 -5z m747 -3 c0 -5 -5 -10 -11 -10 -5 0 -7 5 -4
10 3 6 8 10 11 10 2 0 4 -4 4 -10z m895 -5 c294 -13 353 -16 385 -25 26 -7 12
-8 -55 -5 -49 3 -144 7 -210 10 -430 19 -539 26 -545 32 -5 5 80 3 425 -12z
m-4348 -1 c-3 -3 -12 -4 -19 -1 -8 3 -5 6 6 6 11 1 17 -2 13 -5z m133 -3 c0
-10 -48 -12 -54 -3 -3 5 8 9 24 9 17 0 30 -3 30 -6z m3455 -1 c3 -6 -4 -10
-17 -10 -18 0 -20 2 -8 10 19 12 18 12 25 0z m50 -18 c-3 -3 -11 0 -18 7 -9
10 -8 11 6 5 10 -3 15 -9 12 -12z m2060 2 c44 -3 98 -7 120 -9 22 -2 51 -4 64
-4 13 -1 21 -4 18 -8 -4 -3 -35 -6 -70 -4 -104 3 -410 31 -416 38 -6 5 88 1
284 -13z m-4065 -20 c0 -2 -11 -4 -25 -4 -14 0 -25 4 -25 9 0 4 11 6 25 3 14
-2 25 -6 25 -8z m3170 6 c12 -8 11 -10 -7 -10 -13 0 -23 5 -23 10 0 13 11 13
30 0z m-4262 -7 c-16 -2 -40 -2 -55 0 -16 2 -3 4 27 4 30 0 43 -2 28 -4z m103
-11 c-13 -2 -27 0 -32 5 -6 6 3 7 23 4 28 -4 29 -6 9 -9z m1039 6 c0 -11 -12
-10 -30 2 -12 7 -10 9 8 7 12 0 22 -5 22 -9z m135 2 c-8 -13 8 -13 22 1 7 7
12 6 16 -5 5 -12 0 -16 -23 -16 -17 0 -30 5 -30 11 0 7 -14 8 -39 4 -22 -4
-48 -2 -58 3 -13 8 0 10 50 11 41 0 65 -4 62 -9z m4235 0 c51 -7 49 -7 -37 -9
-56 0 -93 3 -93 9 0 11 50 12 130 0z m-4966 -9 c6 -8 -113 -5 -122 4 -3 3 22
5 56 5 33 0 63 -4 66 -9z m830 -6 c-4 -8 -10 -12 -15 -9 -14 8 -10 24 6 24 9
0 12 -6 9 -15z m3121 4 c11 -5 -17 -6 -65 -2 -47 3 -87 8 -90 10 -8 8 135 0
155 -8z m-3010 -9 c-3 -5 -30 -9 -58 -8 l-52 1 55 7 c30 4 56 7 58 8 2 1 0 -2
-3 -8z m159 -4 c41 4 46 2 28 -6 -29 -12 -142 -11 -142 2 0 5 4 7 8 4 4 -2 14
-1 22 4 9 5 19 5 24 0 5 -5 32 -7 60 -4z m756 -1 c85 -4 157 -9 160 -10 3 -2
50 -6 105 -10 114 -7 155 -13 155 -24 0 -4 -26 -4 -57 -1 -32 4 -76 5 -97 2
-22 -3 -37 -1 -33 4 3 5 -22 8 -59 6 -48 -3 -64 0 -64 10 0 8 -3 9 -8 3 -5 -7
-52 -5 -145 5 -77 8 -136 18 -132 22 5 4 11 6 14 4 3 -2 76 -7 161 -11z m2317
-6 c73 -6 131 -14 129 -18 -6 -9 -286 17 -311 29 -16 8 -13 9 15 5 19 -2 95
-9 167 -16z m-5560 5 c-3 -3 -12 -4 -19 -1 -8 3 -5 6 6 6 11 1 17 -2 13 -5z
m43 -4 c0 -5 -4 -10 -10 -10 -5 0 -10 5 -10 10 0 6 5 10 10 10 6 0 10 -4 10
-10z m190 -4 c8 -2 -21 -4 -65 -4 -44 0 -69 3 -56 7 22 6 87 4 121 -3z m2360
4 c0 -5 -5 -10 -11 -10 -5 0 -7 5 -4 10 3 6 8 10 11 10 2 0 4 -4 4 -10z
m-2270 -10 c0 -5 -9 -10 -19 -10 -11 0 -23 5 -26 10 -4 6 5 10 19 10 14 0 26
-4 26 -10z m2310 6 c0 -2 -7 -7 -16 -10 -8 -3 -12 -2 -9 4 6 10 25 14 25 6z
m50 -5 c0 -10 -26 -9 -36 2 -4 4 2 7 14 7 12 0 22 -4 22 -9z m37 3 c-3 -3 -12
-4 -19 -1 -8 3 -5 6 6 6 11 1 17 -2 13 -5z m-2344 -11 c-7 -2 -21 -2 -30 0
-10 3 -4 5 12 5 17 0 24 -2 18 -5z m1392 -15 c7 -7 -8 -8 -45 -2 -30 4 -73 7
-95 7 l-40 -1 35 8 c42 9 131 2 145 -12z m3978 5 c-7 -2 -21 -2 -30 0 -10 3
-4 5 12 5 17 0 24 -2 18 -5z m52 -3 c3 -5 1 -10 -4 -10 -6 0 -11 5 -11 10 0 6
2 10 4 10 3 0 8 -4 11 -10z m-2072 -7 c-7 -2 -21 -2 -30 0 -10 3 -4 5 12 5 17
0 24 -2 18 -5z m134 -9 c-3 -3 -12 -4 -19 -1 -8 3 -5 6 6 6 11 1 17 -2 13 -5z
m276 -21 c-7 -2 -19 -2 -25 0 -7 3 -2 5 12 5 14 0 19 -2 13 -5z m47 3 c0 -11
-19 -15 -25 -6 -3 5 1 10 9 10 9 0 16 -2 16 -4z m885 -5 c-4 -8 -64 -5 -72 3
-2 2 14 4 37 4 22 0 38 -3 35 -7z m65 -1 c0 -5 -7 -10 -15 -10 -8 0 -15 5 -15
10 0 6 7 10 15 10 8 0 15 -4 15 -10z m-847 -7 c-7 -2 -19 -2 -25 0 -7 3 -2 5
12 5 14 0 19 -2 13 -5z m44 1 c-3 -3 -12 -4 -19 -1 -8 3 -5 6 6 6 11 1 17 -2
13 -5z m853 -3 c0 -5 -9 -7 -20 -4 -11 3 -20 7 -20 9 0 2 9 4 20 4 11 0 20 -4
20 -9z m37 3 c-3 -3 -12 -4 -19 -1 -8 3 -5 6 6 6 11 1 17 -2 13 -5z m-744 -11
c-7 -2 -19 -2 -25 0 -7 3 -2 5 12 5 14 0 19 -2 13 -5z m822 -3 c3 -6 -1 -7 -9
-4 -18 7 -21 14 -7 14 6 0 13 -4 16 -10z m48 3 c-7 -2 -19 -2 -25 0 -7 3 -2 5
12 5 14 0 19 -2 13 -5z m47 -1 c0 -5 -7 -9 -15 -9 -8 0 -12 4 -9 9 3 4 9 8 15
8 5 0 9 -4 9 -8z m-4355 -12 c3 -5 2 -10 -4 -10 -5 0 -13 5 -16 10 -3 6 -2 10
4 10 5 0 13 -4 16 -10z m54 -18 c-5 -2 -17 -1 -27 3 -15 6 -15 8 3 15 12 4 23
3 27 -4 4 -6 3 -13 -3 -14z m4441 18 c0 -5 -2 -10 -4 -10 -3 0 -8 5 -11 10 -3
6 -1 10 4 10 6 0 11 -4 11 -10z m-4180 -17 c19 -3 45 -5 57 -4 11 1 24 -3 28
-8 6 -11 -135 -8 -240 6 -27 3 -58 6 -67 5 -10 0 -18 4 -18 9 0 11 167 5 240
-8z m1870 -5 c0 -4 -15 -8 -32 -8 -24 0 -29 3 -19 9 17 11 51 10 51 -1z m170
-9 c0 -6 -4 -7 -10 -4 -5 3 -10 11 -10 16 0 6 5 7 10 4 6 -3 10 -11 10 -16z
m-1915 -7 c-3 -3 -11 0 -18 7 -9 10 -8 11 6 5 10 -3 15 -9 12 -12z m2293 -9
c-10 -2 -28 -2 -40 0 -13 2 -5 4 17 4 22 1 32 -1 23 -4z m-5171 -19 c-3 -3
-12 -4 -19 -1 -8 3 -5 6 6 6 11 1 17 -2 13 -5z m270 -20 c-3 -3 -12 -4 -19 -1
-8 3 -5 6 6 6 11 1 17 -2 13 -5z m76 -1 c-13 -2 -33 -2 -45 0 -13 2 -3 4 22 4
25 0 35 -2 23 -4z m95 -10 c-10 -2 -26 -2 -35 0 -10 3 -2 5 17 5 19 0 27 -2
18 -5z m152 -4 c0 -5 -24 -7 -54 -7 -30 1 -53 5 -50 9 6 10 104 7 104 -2z
m4355 -9 c-24 -10 -275 -13 -258 -2 6 4 71 8 145 9 80 1 125 -2 113 -7z m103
3 c-10 -2 -28 -2 -40 0 -13 2 -5 4 17 4 22 1 32 -1 23 -4z m-3218 -13 c-8 -5
-19 -10 -25 -10 -5 0 -3 5 5 10 8 5 20 10 25 10 6 0 3 -5 -5 -10z m315 -10
c66 -5 172 -12 235 -15 63 -3 135 -8 160 -12 25 -3 56 -5 70 -4 13 2 56 0 95
-4 53 -5 72 -10 72 -21 0 -11 -8 -13 -27 -9 -33 7 -318 26 -382 25 -27 -1 -48
3 -48 7 0 4 -27 6 -60 5 -33 -2 -60 0 -60 5 0 4 -26 9 -58 9 -51 2 -103 4
-252 14 l-45 3 55 6 c30 4 71 5 90 3 19 -1 89 -7 155 -12z m2518 13 c-7 -2
-19 -2 -25 0 -7 3 -2 5 12 5 14 0 19 -2 13 -5z m744 1 c-3 -3 -12 -4 -19 -1
-8 3 -5 6 6 6 11 1 17 -2 13 -5z m-5824 -51 c-7 -2 -21 -2 -30 0 -10 3 -4 5
12 5 17 0 24 -2 18 -5z m430 0 c-7 -2 -21 -2 -30 0 -10 3 -4 5 12 5 17 0 24
-2 18 -5z m-296 -10 c-20 -2 -52 -2 -70 0 -17 2 0 4 38 4 39 0 53 -2 32 -4z
m183 -9 c0 -2 -7 -4 -15 -4 -8 0 -15 4 -15 10 0 5 7 7 15 4 8 -4 15 -8 15 -10z
m333 9 c-7 -2 -19 -2 -25 0 -7 3 -2 5 12 5 14 0 19 -2 13 -5z m2777 -20 c13
-14 13 -15 -3 -9 -45 15 -67 18 -67 7 0 -6 -5 -11 -11 -11 -5 0 -8 4 -5 9 3 5
-23 7 -58 6 -50 -2 -66 1 -70 12 -5 13 8 14 96 8 74 -4 107 -11 118 -22z
m1030 17 c0 -4 -50 -8 -111 -9 -74 -1 -108 2 -104 9 7 12 215 12 215 0z m40 0
c12 -8 11 -10 -7 -10 -13 0 -23 5 -23 10 0 13 11 13 30 0z m254 -2 c-3 -4 -14
-8 -25 -8 -11 0 -18 4 -15 8 2 4 14 8 25 8 11 0 17 -4 15 -8z m154 -5 c11 -11
11 -13 -2 -13 -9 0 -16 5 -16 10 0 7 -6 7 -20 0 -14 -8 -20 -8 -20 0 0 6 -4 8
-10 5 -5 -3 -10 -1 -10 5 0 14 62 9 78 -7z m37 7 c-3 -6 4 -10 17 -10 18 0 20
2 8 10 -12 8 -9 10 13 10 16 0 26 -4 22 -9 -3 -6 17 -12 47 -14 36 -2 27 -4
-29 -4 -59 -1 -85 3 -94 13 -9 11 -8 14 5 14 10 0 14 -4 11 -10z m212 4 c-3
-3 -12 -4 -19 -1 -8 3 -5 6 6 6 11 1 17 -2 13 -5z m56 -1 c-7 -2 -19 -2 -25 0
-7 3 -2 5 12 5 14 0 19 -2 13 -5z m54 1 c-3 -3 -12 -4 -19 -1 -8 3 -5 6 6 6
11 1 17 -2 13 -5z m-5000 -10 c-3 -3 -12 -4 -19 -1 -8 3 -5 6 6 6 11 1 17 -2
13 -5z m5532 -9 c2 -3 -110 -4 -250 -3 -140 0 -236 4 -214 8 43 7 456 3 464
-5z m499 8 c-15 -2 -42 -2 -60 0 -18 2 -6 4 27 4 33 0 48 -2 33 -4z m-5840
-10 c-10 -2 -26 -2 -35 0 -10 3 -2 5 17 5 19 0 27 -2 18 -5z m3042 3 c0 -3 -4
-8 -10 -11 -5 -3 -10 -1 -10 4 0 6 5 11 10 11 6 0 10 -2 10 -4z m1748 -3 c-27
-2 -69 -2 -95 0 -27 2 -5 3 47 3 52 0 74 -1 48 -3z m595 0 c-7 -2 -19 -2 -25
0 -7 3 -2 5 12 5 14 0 19 -2 13 -5z m524 1 c-3 -3 -12 -4 -19 -1 -8 3 -5 6 6
6 11 1 17 -2 13 -5z m86 -1 c-13 -2 -35 -2 -50 0 -16 2 -5 4 22 4 28 0 40 -2
28 -4z m621 -31 c3 -5 -11 -9 -30 -10 -20 -1 -32 3 -29 8 8 12 52 13 59 2z
m-5729 -52 c8 -13 -25 -13 -45 0 -12 8 -9 10 12 10 15 0 30 -4 33 -10z m55 0
c0 -5 -5 -10 -11 -10 -5 0 -7 5 -4 10 3 6 8 10 11 10 2 0 4 -4 4 -10z m183
-15 c42 -4 85 -8 95 -10 10 -2 63 -6 118 -10 54 -4 101 -9 103 -11 2 -2 10 1
18 7 9 8 13 8 13 1 0 -6 12 -10 28 -8 15 1 33 -2 41 -8 10 -8 15 -8 18 2 3 6
9 12 14 12 6 0 7 -4 4 -10 -3 -5 -1 -10 4 -10 6 0 11 5 11 10 0 15 41 12 73
-4 18 -10 27 -11 27 -3 0 8 3 8 12 -1 8 -8 15 -9 25 -1 7 7 13 7 13 2 0 -8 29
-10 174 -12 21 -1 45 -6 52 -12 10 -9 14 -8 14 0 0 7 9 9 23 6 27 -6 117 -14
175 -15 23 0 42 -4 42 -9 0 -4 -39 -7 -87 -5 -202 7 -378 16 -385 20 -4 3 -33
5 -63 5 -44 1 -55 4 -51 15 3 8 1 14 -4 14 -6 0 -10 -6 -10 -13 0 -14 5 -14
-180 3 -63 6 -144 13 -180 15 -36 3 -74 7 -86 9 -11 2 -58 7 -104 11 -46 4
-93 11 -104 15 -21 8 -14 8 157 -5z m5760 -12 c-7 -2 -21 -2 -30 0 -10 3 -4 5
12 5 17 0 24 -2 18 -5z m115 -2 c23 -1 42 -5 42 -10 0 -4 -10 -7 -22 -6 -13 1
-42 3 -65 4 -24 0 -43 5 -43 9 0 5 10 8 23 6 12 -1 41 -3 65 -3z m-1463 -11
c110 -2 143 -5 105 -10 -48 -5 -51 -7 -25 -12 34 -7 -163 0 -242 9 -55 5 -74
20 -25 17 15 0 99 -2 187 -4z m-1380 -20 c3 -5 1 -10 -4 -10 -6 0 -11 5 -11
10 0 6 2 10 4 10 3 0 8 -4 11 -10z m1658 3 c-13 -2 -33 -2 -45 0 -13 2 -3 4
22 4 25 0 35 -2 23 -4z m-1393 -34 c0 -5 -8 -9 -17 -8 -11 0 -13 3 -5 6 6 2 9
10 6 15 -4 7 -2 8 4 4 7 -4 12 -11 12 -17z m63 10 c20 -1 20 -2 -3 -9 -39 -13
-50 -11 -50 6 0 11 5 14 16 10 9 -3 25 -6 37 -7z m1245 4 c-10 -2 -26 -2 -35
0 -10 3 -2 5 17 5 19 0 27 -2 18 -5z m369 1 c-3 -3 -12 -4 -19 -1 -8 3 -5 6 6
6 11 1 17 -2 13 -5z m-1549 -16 c-3 -7 -14 -14 -26 -14 -21 -2 -21 -1 0 3 22
5 22 6 3 14 -19 7 -18 8 3 8 15 1 22 -4 20 -11z m40 -6 c6 -18 -15 -14 -22 4
-4 10 -1 14 6 12 6 -2 14 -10 16 -16z m1290 11 c-10 -2 -28 -2 -40 0 -13 2 -5
4 17 4 22 1 32 -1 23 -4z m-5611 -9 c-3 -3 -12 -4 -19 -1 -8 3 -5 6 6 6 11 1
17 -2 13 -5z m2021 -8 c3 -3 -9 -6 -26 -6 -18 0 -32 4 -32 9 0 9 48 6 58 -3z
m2464 1 c6 -9 10 -9 16 1 6 8 18 11 35 7 23 -6 75 -10 192 -14 22 -1 35 -5 28
-9 -6 -4 -49 -6 -95 -5 -45 1 -112 3 -148 3 -36 1 -88 7 -115 14 l-50 13 65 1
c40 1 67 -4 72 -11z m1255 7 c-3 -3 -12 -4 -19 -1 -8 3 -5 6 6 6 11 1 17 -2
13 -5z m141 -11 c-10 -2 -28 -2 -40 0 -13 2 -5 4 17 4 22 1 32 -1 23 -4z m400
0 c-10 -2 -26 -2 -35 0 -10 3 -2 5 17 5 19 0 27 -2 18 -5z m-6121 -9 c-3 -3
-12 -4 -19 -1 -8 3 -5 6 6 6 11 1 17 -2 13 -5z m48 -4 c13 -6 15 -9 5 -9 -8 0
-22 4 -30 9 -18 12 -2 12 25 0z m2712 4 c-3 -3 -12 -4 -19 -1 -8 3 -5 6 6 6
11 1 17 -2 13 -5z m147 -2 c2 -4 -4 -8 -14 -8 -10 0 -16 4 -14 8 3 4 9 8 14 8
5 0 11 -4 14 -8z m1811 -3 c50 -6 114 -11 143 -11 28 0 55 -5 58 -10 5 -7 -24
-8 -87 -3 -52 4 -120 7 -151 7 -39 0 -58 5 -62 14 -6 17 -13 16 99 3z m1178 4
c-7 -2 -21 -2 -30 0 -10 3 -4 5 12 5 17 0 24 -2 18 -5z m274 1 c-3 -3 -12 -4
-19 -1 -8 3 -5 6 6 6 11 1 17 -2 13 -5z m73 -4 c22 -7 20 -8 -12 -7 -21 1 -38
5 -38 9 0 10 16 9 50 -2z m-3235 -10 c3 -5 1 -10 -4 -10 -6 0 -11 5 -11 10 0
6 2 10 4 10 3 0 8 -4 11 -10z m50 0 c3 -5 12 -7 19 -4 8 3 17 1 20 -4 3 -5 -7
-7 -22 -5 -15 2 -32 5 -39 5 -7 1 -10 5 -7 10 7 11 21 10 29 -2z m2932 4 c-3
-3 -12 -4 -19 -1 -8 3 -5 6 6 6 11 1 17 -2 13 -5z m46 -1 c-7 -2 -19 -2 -25 0
-7 3 -2 5 12 5 14 0 19 -2 13 -5z m-5850 -12 c4 0 7 -6 7 -12 0 -8 -4 -8 -15
1 -8 6 -19 9 -24 5 -6 -3 -19 -2 -28 4 -14 7 -10 9 17 7 19 -2 38 -4 43 -5z
m32 0 c3 -5 1 -12 -5 -16 -5 -3 -10 1 -10 9 0 18 6 21 15 7z m3005 -2 c0 -4
-8 -9 -18 -11 -11 -3 -19 0 -19 8 0 7 9 12 19 11 10 -1 18 -4 18 -8z m3150 1
c0 -5 -5 -10 -11 -10 -5 0 -7 5 -4 10 3 6 8 10 11 10 2 0 4 -4 4 -10z m-6115
-10 c-3 -5 -10 -10 -16 -10 -5 0 -9 5 -9 10 0 6 7 10 16 10 8 0 12 -4 9 -10z
m3022 4 c-3 -3 -12 -4 -19 -1 -8 3 -5 6 6 6 11 1 17 -2 13 -5z m56 -11 c-7 -2
-21 -2 -30 0 -10 3 -4 5 12 5 17 0 24 -2 18 -5z m-2493 -112 c0 -5 -9 -7 -20
-4 -11 3 -20 7 -20 9 0 2 9 4 20 4 11 0 20 -4 20 -9z m70 -1 c0 -5 -7 -7 -15
-4 -8 4 -15 8 -15 10 0 2 7 4 15 4 8 0 15 -4 15 -10z m30 0 c0 -5 -5 -10 -11
-10 -5 0 -7 5 -4 10 3 6 8 10 11 10 2 0 4 -4 4 -10z m60 -9 c0 -6 -9 -9 -20
-8 -11 1 -20 5 -20 9 0 4 9 8 20 8 11 0 20 -4 20 -9z m120 -13 c11 -6 9 -7 -7
-3 -13 4 -41 6 -63 7 -22 0 -40 4 -40 9 0 10 90 0 110 -13z m95 2 c15 -7 8 -9
-27 -8 -27 1 -48 5 -48 10 0 11 49 9 75 -2z m58 -7 c-7 -2 -19 -2 -25 0 -7 3
-2 5 12 5 14 0 19 -2 13 -5z m587 -154 c318 -39 651 -152 1140 -386 195 -94
585 -317 775 -443 55 -37 110 -72 121 -78 12 -6 138 -25 280 -42 143 -17 274
-33 292 -36 l32 -5 -85 -56 c-46 -31 -83 -58 -81 -61 4 -3 306 13 414 22 70 6
37 -8 -126 -54 -84 -24 -151 -45 -149 -46 2 -2 86 3 188 11 273 22 276 21 109
-33 l-145 -48 110 -13 c161 -20 165 -24 39 -50 -60 -13 -122 -26 -137 -30 -21
-5 46 -21 250 -61 l278 -55 -175 -6 c-96 -4 -195 -7 -220 -9 -35 -1 0 -12 163
-50 115 -26 211 -51 214 -54 4 -3 -11 -6 -33 -6 -21 0 -97 -5 -168 -12 l-128
-11 93 -34 c137 -48 139 -47 -41 -26 l-55 6 110 -73 c68 -46 147 -111 208
-171 53 -53 97 -96 97 -95 0 1 -7 25 -15 52 -8 27 -19 91 -25 143 -14 111 -1
161 56 210 79 70 168 65 328 -17 61 -31 174 -85 252 -120 159 -71 342 -169
489 -261 425 -267 752 -611 956 -1004 l53 -103 100 -60 c173 -101 417 -257
520 -331 121 -87 277 -223 295 -256 13 -24 2 -48 -195 -416 -165 -310 -210
-389 -220 -379 -6 7 -59 79 -117 159 l-104 147 -7 -113 c-23 -393 -146 -733
-362 -1003 -84 -106 -241 -253 -354 -335 -114 -81 -355 -203 -500 -252 -255
-88 -604 -145 -885 -145 l-71 0 -89 -76 c-179 -150 -431 -333 -577 -418 l-46
-27 -25 33 c-39 53 -54 88 -98 235 -43 143 -66 197 -104 248 l-22 30 81 35 81
34 -48 14 c-44 12 -51 12 -100 -11 -172 -81 -645 -209 -1017 -276 -172 -31
-203 -27 -236 35 -16 30 -17 39 -5 96 20 97 76 226 168 386 111 192 163 296
206 412 77 206 122 461 135 757 l8 175 32 29 c48 43 88 39 150 -13 28 -24 226
-209 441 -413 444 -420 402 -392 601 -401 l115 -5 -55 34 c-30 20 -80 51 -111
70 -50 30 -56 38 -52 61 11 55 67 87 179 102 44 5 58 2 112 -25 111 -56 216
-122 255 -159 l38 -37 82 29 c98 34 221 97 261 134 75 71 159 219 187 332 18
70 18 284 0 365 -16 75 -75 254 -104 318 l-22 49 0 -119 c0 -157 -19 -218 -91
-290 -37 -37 -62 -54 -90 -59 -35 -6 -40 -4 -66 27 -58 69 -124 276 -149 464
-15 118 -7 253 21 330 11 33 34 99 49 147 l28 86 -84 69 c-161 129 -243 235
-243 314 0 9 -22 33 -48 52 -138 98 -299 373 -365 620 -22 86 -23 87 -89 141
-36 30 -69 59 -72 64 -3 5 21 21 53 37 l58 27 6 88 c3 48 13 104 21 125 9 20
14 41 11 46 -6 9 -353 279 -359 279 -3 0 2 -24 10 -52 19 -71 18 -72 -14 -49
-87 61 -602 604 -616 648 -3 10 -16 24 -28 32 -329 206 -581 348 -828 468
-552 268 -936 384 -1271 384 -244 1 -441 -76 -498 -193 -104 -216 164 -566
797 -1042 303 -227 461 -389 539 -552 95 -199 19 -334 -211 -375 -181 -31
-395 52 -1291 501 -816 410 -1059 521 -1364 624 -228 78 -325 99 -456 100
-131 1 -167 -12 -263 -100 -68 -61 -118 -149 -128 -224 -13 -98 33 -232 123
-359 105 -147 354 -361 515 -442 463 -233 1304 -884 1846 -1428 l174 -174 37
13 c41 13 75 7 103 -18 28 -24 57 -114 68 -214 l11 -93 112 -169 c62 -93 115
-173 118 -178 4 -6 27 -6 64 2 l57 12 40 -39 c45 -42 72 -96 83 -160 6 -36 3
-47 -20 -77 -24 -32 -25 -37 -12 -56 14 -20 15 -20 27 10 17 42 81 97 127 109
56 15 109 -3 159 -53 102 -102 74 -286 -52 -346 -27 -13 -51 -24 -52 -26 -2
-1 10 -23 28 -48 17 -26 38 -62 46 -81 17 -42 19 -126 2 -143 -18 -18 -73 -15
-97 6 -11 9 -90 130 -175 267 -118 192 -159 251 -177 253 -12 2 -93 -27 -180
-64 l-159 -67 28 -48 c25 -43 88 -92 615 -470 675 -484 602 -411 691 -682 43
-127 186 -634 219 -777 9 -35 55 -59 222 -114 161 -53 233 -90 254 -128 23
-41 -5 -93 -64 -119 -90 -40 -404 -45 -625 -10 -72 11 -88 31 -111 140 -17 76
-30 107 -73 174 -113 176 -204 353 -325 636 l-67 154 -374 129 c-205 70 -376
125 -378 123 -3 -3 5 -89 17 -192 33 -284 41 -395 41 -538 -1 -127 -18 -257
-36 -275 -16 -16 -112 -30 -203 -30 -172 0 -378 45 -799 174 -118 37 -216 66
-219 66 -3 0 -3 -27 0 -60 3 -41 15 -76 37 -115 30 -53 31 -57 16 -80 -9 -14
-29 -27 -44 -31 -15 -3 -33 -7 -40 -10 -21 -6 -114 15 -160 37 -40 20 -47 30
-93 127 -27 58 -56 132 -65 165 -8 33 -28 92 -43 131 -52 131 -53 198 -3 217
39 15 151 12 227 -6 53 -12 138 -15 421 -15 195 0 354 3 354 6 0 3 -54 122
-120 265 -112 242 -125 265 -195 346 -77 89 -143 203 -166 283 -7 25 -15 101
-18 170 l-6 125 -285 193 c-196 133 -308 215 -358 265 -130 128 -184 280 -153
427 17 78 72 185 130 255 60 72 94 152 85 201 -4 24 -28 56 -78 107 -127 131
-181 247 -180 392 0 77 4 99 27 150 39 84 67 116 128 150 103 57 222 35 357
-67 l63 -48 138 0 c150 0 151 0 151 -56 0 -31 -72 -103 -129 -129 -31 -14 -40
-22 -35 -34 35 -82 57 -158 61 -218 5 -65 3 -78 -22 -129 -26 -54 -27 -59 -14
-101 l14 -44 145 -4 c113 -2 160 -8 212 -24 72 -23 163 -84 217 -147 19 -21
54 -61 77 -87 l43 -48 83 113 c46 62 94 127 106 144 l22 32 -58 75 c-311 406
-890 905 -1698 1465 -89 62 -167 112 -173 112 -36 0 -248 158 -370 275 -218
210 -311 386 -298 564 11 144 122 297 265 364 63 29 74 31 177 31 138 -1 267
-27 480 -98 300 -100 598 -237 1495 -689 782 -393 980 -468 1145 -438 253 47
257 218 11 494 -85 96 -202 197 -375 325 -299 220 -570 467 -687 625 -109 146
-172 305 -160 397 23 171 176 279 456 323 53 9 219 7 300 -4z m1608 -95 c6 -1
39 -2 73 -2 38 -1 58 -6 54 -12 -4 -6 -10 -8 -15 -5 -5 3 -45 6 -89 7 -45 0
-81 4 -81 9 0 9 33 17 40 9 3 -3 11 -5 18 -6z m-133 -4 c3 -5 1 -10 -4 -10 -6
0 -11 5 -11 10 0 6 2 10 4 10 3 0 8 -4 11 -10z m353 -5 c-10 -11 -48 -14 -48
-4 0 5 12 9 27 9 14 0 24 -2 21 -5z m132 -9 c0 -3 -4 -8 -10 -11 -5 -3 -10 -1
-10 4 0 6 5 11 10 11 6 0 10 -2 10 -4z m100 -12 c0 -2 -9 -4 -20 -4 -11 0 -20
4 -20 9 0 5 9 7 20 4 11 -3 20 -7 20 -9z"/>
<path d="M2618 10683 c7 -3 16 -2 19 1 4 3 -2 6 -13 5 -11 0 -14 -3 -6 -6z"/>
<path d="M4368 10443 c7 -3 16 -2 19 1 4 3 -2 6 -13 5 -11 0 -14 -3 -6 -6z"/>
<path d="M7290 7203 c-32 -12 -59 -47 -65 -83 -12 -73 51 -250 127 -357 l33
-46 -3 -234 c-2 -148 1 -249 8 -276 30 -112 97 -157 250 -166 l95 -6 -63 -42
c-84 -56 -155 -72 -217 -49 -104 40 -163 180 -166 392 -2 94 -2 94 -27 94 -46
0 -111 40 -171 107 -49 53 -63 63 -78 55 -33 -17 -91 -23 -134 -13 -24 6 -44
9 -46 8 -1 -2 18 -44 42 -95 138 -290 423 -568 680 -663 33 -12 64 -26 69 -31
6 -4 -40 -8 -102 -8 -62 0 -112 -4 -112 -8 0 -20 60 -100 96 -127 21 -16 89
-58 149 -92 61 -35 105 -63 98 -63 -22 0 -168 -22 -172 -25 -2 -2 10 -21 27
-42 52 -66 178 -265 222 -351 24 -45 44 -81 45 -80 1 2 -4 77 -11 168 -7 91
-13 208 -15 260 l-2 95 159 6 c87 4 177 7 200 8 l41 1 151 228 151 227 8 185
8 185 27 -45 c37 -63 52 -151 45 -268 -3 -53 -9 -107 -14 -120 -5 -12 -87
-124 -183 -248 l-175 -226 -50 6 c-27 3 -72 8 -100 12 -45 5 -48 4 -28 -8 19
-11 283 -313 283 -323 0 -2 -30 7 -67 22 -107 40 -124 46 -128 41 -2 -2 21
-37 52 -78 l56 -75 -107 105 c-58 57 -106 102 -106 99 0 -3 27 -68 60 -145 33
-76 56 -134 51 -129 -6 6 -62 79 -125 164 -64 85 -116 149 -116 142 0 -21 110
-495 120 -520 10 -21 15 -23 52 -18 50 7 138 52 240 123 42 30 79 54 83 54 12
0 -60 -93 -132 -170 l-72 -77 14 -114 c32 -267 28 -538 -11 -724 l-15 -70 42
-158 c23 -86 43 -156 44 -155 1 2 -1 59 -6 128 -4 68 -6 126 -4 128 2 2 22
-31 44 -74 22 -44 40 -74 40 -69 0 6 -10 53 -24 105 -14 52 -25 99 -25 105 0
5 27 -17 60 -50 33 -33 60 -56 60 -52 0 4 -27 62 -61 129 -61 121 -82 168 -75
168 4 0 214 -253 228 -274 5 -7 13 -3 23 12 9 12 22 22 29 22 13 0 36 -41 36
-65 0 -26 -23 -65 -38 -65 -8 0 -20 7 -26 15 -9 12 -18 -5 -46 -87 -19 -57
-57 -141 -84 -188 -81 -137 -147 -197 -208 -188 l-23 3 -5 254 -5 255 -34 -87
c-75 -195 -215 -370 -380 -475 -166 -106 -369 -164 -637 -181 -80 -5 -108 -9
-74 -11 30 -1 100 -5 155 -9 l100 -6 -75 -20 c-63 -16 -117 -19 -332 -22
l-258 -3 -70 -31 c-39 -18 -69 -33 -67 -35 1 -2 34 1 71 7 38 5 71 8 73 6 2
-2 -24 -15 -56 -28 -33 -13 -59 -25 -57 -26 2 -2 42 6 90 17 123 29 130 25 49
-23 -40 -24 -76 -46 -79 -50 -4 -4 46 11 111 33 65 22 120 39 121 37 2 -1 -41
-30 -95 -62 -55 -33 -98 -61 -96 -63 1 -1 42 13 91 32 180 69 229 87 219 78
-6 -5 -64 -47 -130 -92 -135 -93 -161 -115 -95 -77 62 34 273 149 285 154 12
6 -64 -68 -200 -196 -93 -87 -78 -77 206 136 l305 230 155 6 c252 11 447 45
661 117 903 302 1361 1163 1147 2160 -104 482 -434 1032 -802 1333 -343 281
-551 408 -1072 652 -55 25 -112 37 -135 28z m106 -224 c30 -41 50 -75 44 -77
-6 -2 -26 -1 -45 2 -40 8 -75 47 -75 85 0 30 11 74 17 68 2 -2 28 -37 59 -78z
m377 -120 c86 -43 149 -91 181 -138 l28 -40 -21 -98 c-12 -53 -23 -99 -26
-101 -7 -7 -34 44 -40 78 -3 19 -2 54 3 77 9 38 7 47 -18 86 -15 23 -58 67
-96 97 -109 85 -110 88 -11 39z m-14 -49 c43 -12 98 -64 106 -100 9 -40 -18
-96 -57 -120 -39 -24 -116 -27 -156 -6 -82 43 -103 127 -47 186 42 44 94 58
154 40z m509 -650 c-2 -75 -8 -105 -26 -141 -46 -94 -129 -152 -248 -172 -54
-9 -79 -8 -146 5 -99 21 -123 38 -52 38 151 1 289 83 354 211 35 68 56 150 66
249 l7 75 24 -85 c19 -68 23 -104 21 -180z m186 -42 c9 -12 16 -31 16 -42 0
-43 -59 -73 -88 -44 -7 7 -12 28 -12 48 0 20 5 41 12 48 19 19 55 14 72 -10z
m354 0 c37 -37 -12 -99 -61 -77 -34 15 -41 36 -22 65 17 26 62 33 83 12z
m-368 -173 c20 -24 -6 -47 -49 -43 -38 3 -56 33 -29 49 21 14 64 10 78 -6z
m465 -90 c49 -48 17 -145 -48 -145 -41 0 -72 46 -68 103 1 25 46 67 71 67 12
0 32 -11 45 -25z m-569 -26 c17 -19 17 -23 3 -47 -18 -33 -54 -40 -80 -16 -23
21 -24 47 -3 68 22 22 57 20 80 -5z m353 -5 c25 -32 27 -61 5 -92 -19 -27 -60
-29 -74 -3 -18 35 -12 88 12 105 30 21 33 20 57 -10z m-89 -164 c24 -24 25
-48 4 -78 -29 -42 -94 -14 -94 40 0 22 34 58 55 58 8 0 24 -9 35 -20z m282
-95 c8 -19 8 -31 0 -50 -19 -42 -62 -25 -62 25 0 50 43 67 62 25z m230 -32
c23 -21 24 -89 1 -115 -25 -28 -60 -23 -78 12 -20 39 -19 62 6 94 24 30 45 33
71 9z m-532 -93 c5 0 14 -9 20 -20 8 -15 6 -24 -10 -40 -11 -11 -29 -20 -40
-20 -27 0 -61 35 -53 56 7 18 42 35 61 28 8 -2 18 -4 22 -4z m208 -102 c31
-31 3 -98 -40 -98 -49 0 -76 61 -42 94 18 19 65 21 82 4z m260 -40 c30 -30 3
-83 -39 -76 -45 6 -42 88 4 88 13 0 28 -5 35 -12z m158 -185 c17 -68 -45 -110
-74 -50 -14 30 -9 58 14 82 20 20 51 4 60 -32z m-642 16 c53 -41 23 -129 -44
-129 -38 0 -80 39 -80 75 0 33 41 75 73 75 13 0 36 -9 51 -21z m206 -29 c25
-25 25 -41 -1 -74 -13 -17 -30 -26 -49 -26 -19 0 -36 9 -49 26 -25 32 -26 43
-5 72 20 29 76 30 104 2z m270 -74 c17 -52 -9 -126 -45 -126 -36 0 -62 74 -45
126 21 64 69 64 90 0z m-322 -168 c25 -25 8 -78 -25 -78 -22 0 -37 44 -24 69
13 24 31 27 49 9z m180 -40 c7 -7 12 -24 12 -38 0 -52 -53 -70 -71 -24 -17 46
28 93 59 62z m334 -15 c24 -22 24 -77 -2 -103 -24 -24 -29 -24 -58 -4 -41 28
-21 124 26 124 9 0 24 -7 34 -17z m-204 -139 c41 -29 23 -84 -28 -84 -32 0
-50 17 -50 46 0 20 32 54 50 54 3 0 16 -7 28 -16z m-151 -66 c43 -41 19 -118
-37 -118 -55 0 -77 65 -39 114 25 32 45 33 76 4z m-212 -33 c15 -14 25 -36 25
-53 0 -38 -35 -82 -65 -82 -30 0 -65 44 -65 82 0 32 39 78 65 78 9 0 27 -11
40 -25z m-227 -126 c3 -52 -12 -83 -28 -59 -11 17 -13 93 -3 104 15 15 28 -3
31 -45z m522 -64 c26 -32 -13 -81 -47 -59 -24 15 -27 38 -8 58 20 20 39 20 55
1z m154 -40 c34 -35 30 -126 -7 -149 -55 -35 -92 98 -41 148 19 20 29 20 48 1z
m-274 -74 c15 -30 12 -78 -7 -96 -16 -16 -18 -16 -35 5 -20 25 -22 47 -8 84
11 31 35 34 50 7z m145 -141 c0 -28 -4 -35 -20 -35 -13 0 -21 8 -23 23 -5 34
5 54 25 50 13 -2 18 -13 18 -38z m-305 -27 c16 -20 20 -36 16 -58 -6 -28 -29
-55 -48 -55 -19 0 -48 42 -48 70 0 29 29 70 49 70 5 0 19 -12 31 -27z m261
-115 c22 -41 -21 -89 -61 -68 -32 17 -25 80 10 92 21 7 39 -1 51 -24z m-386
-108 c0 -28 -4 -36 -21 -38 -26 -4 -38 31 -23 60 17 32 44 18 44 -22z m225
-169 c23 -45 1 -121 -32 -108 -16 6 -30 57 -23 82 3 8 7 22 10 30 6 21 32 19
45 -4z m-666 -494 c16 -25 -16 -56 -38 -37 -19 15 -20 32 -4 48 15 15 28 11
42 -11z m-155 -121 c6 -7 8 -21 5 -30 -9 -24 -58 -17 -62 8 -6 31 36 48 57 22z"/>
<path d="M7656 6728 c-9 -12 -16 -29 -16 -38 0 -9 7 -26 16 -38 23 -34 83 -27
104 11 13 24 13 30 0 55 -21 37 -81 44 -104 10z m85 -30 c9 -16 7 -24 -9 -41
-23 -22 -45 -18 -62 12 -8 17 -7 24 10 41 22 22 45 18 61 -12z"/>
<path d="M6944 6902 c9 -17 32 -57 51 -89 31 -51 35 -55 35 -30 0 45 -24 90
-64 121 l-38 28 16 -30z"/>
<path d="M6801 6846 c-14 -58 -14 -98 2 -118 25 -32 109 -44 149 -21 12 6
-111 183 -126 183 -8 0 -18 -19 -25 -44z"/>
<path d="M7160 6756 c0 -25 -9 -45 -30 -69 l-29 -34 42 -40 c51 -50 76 -63
117 -63 l32 0 -23 38 c-12 20 -42 74 -66 120 -40 77 -43 80 -43 48z"/>
<path d="M9310 5575 c0 -3 18 -57 39 -119 53 -154 105 -364 126 -511 9 -66 18
-120 18 -121 1 -1 48 -42 105 -93 95 -84 129 -110 105 -78 -22 27 -169 223
-182 241 -18 25 -7 18 69 -39 123 -93 174 -128 160 -110 -8 11 -70 86 -137
168 -68 81 -123 150 -123 153 0 5 46 -30 240 -180 80 -62 69 -47 -90 124 -141
152 -182 199 -160 183 8 -6 89 -63 180 -128 l165 -117 -190 192 -190 192 190
-127 c105 -70 181 -118 170 -108 -12 10 -107 89 -213 177 -106 87 -192 161
-192 163 0 3 119 -56 265 -131 146 -75 265 -134 265 -132 0 2 -30 23 -67 47
-38 24 -171 111 -298 194 -269 177 -255 168 -255 160z"/>
<path d="M8028 5483 c6 -2 18 -2 25 0 6 3 1 5 -13 5 -14 0 -19 -2 -12 -5z"/>
<path d="M3425 4780 c-48 -16 -52 -21 -122 -135 -40 -66 -73 -123 -73 -128 0
-6 108 -200 126 -225 2 -4 327 17 331 22 2 1 9 23 17 49 l14 46 -119 192 c-65
105 -120 193 -121 194 -2 1 -25 -5 -53 -15z"/>
<path d="M8041 4318 c-3 -123 -49 -288 -107 -379 -126 -201 -345 -324 -669
-376 -70 -12 -166 -17 -322 -17 -174 0 -223 -3 -227 -13 -8 -20 -43 -16 -59 7
-11 15 -36 23 -118 34 -57 8 -121 22 -141 30 -21 9 -47 16 -58 16 -34 0 -97
-37 -123 -72 -59 -79 -107 -212 -107 -300 0 -33 -3 -38 -22 -38 -36 0 -461 60
-482 69 -11 4 77 22 225 45 134 22 252 42 261 45 13 5 -29 44 -166 156 -101
83 -183 151 -181 153 1 1 98 -32 215 -73 117 -41 215 -75 217 -75 2 0 -70 98
-160 218 -178 237 -191 256 -161 231 30 -25 387 -311 403 -323 8 -6 -60 89
-152 212 -92 122 -165 222 -162 222 2 0 73 -53 157 -118 84 -64 182 -140 218
-167 48 -37 2 17 -185 209 -299 309 -332 331 -392 262 l-30 -33 -6 -184 c-8
-223 -31 -370 -88 -543 -47 -144 -161 -378 -258 -531 -92 -143 -94 -148 -80
-179 7 -14 20 -28 31 -31 27 -9 311 14 398 31 120 25 227 62 358 124 67 32
122 60 122 62 0 2 -140 -6 -312 -19 -172 -12 -314 -21 -315 -19 -2 2 470 209
528 231 12 4 19 -4 28 -35 18 -62 42 -80 104 -80 28 0 84 -9 122 -20 175 -51
471 -73 664 -51 526 62 883 365 1008 856 21 83 26 131 30 285 3 102 3 196 0
210 -2 14 -5 0 -6 -32z m-2173 -162 c4 -17 -24 -56 -39 -56 -14 0 -39 31 -39
50 0 10 7 26 16 35 14 14 19 14 38 2 11 -8 23 -22 24 -31z m126 -172 c21 -21
20 -30 -5 -48 -27 -19 -68 -4 -69 26 0 12 31 38 45 38 7 0 21 -7 29 -16z
m-146 -111 c4 -28 -34 -42 -55 -20 -23 23 -9 49 24 45 20 -2 29 -9 31 -25z
m2080 -59 c4 -25 -20 -47 -42 -38 -16 6 -22 45 -9 58 14 14 48 1 51 -20z
m-1978 -124 c0 -33 -31 -50 -55 -30 -20 17 -19 57 2 69 27 14 53 -5 53 -39z
m1770 -40 c11 -11 20 -26 20 -34 0 -14 -36 -46 -52 -46 -11 0 -48 38 -48 50 0
13 37 50 50 50 6 0 19 -9 30 -20z m-1911 -84 c14 -17 4 -46 -15 -46 -18 0 -28
24 -20 45 7 19 20 19 35 1z m700 -30 c18 -22 9 -67 -16 -83 -20 -14 -24 -13
-47 11 -26 25 -26 44 -3 74 13 16 52 15 66 -2z m1029 -71 c3 -36 -18 -75 -41
-75 -24 0 -47 34 -47 71 0 81 81 85 88 4z m-232 0 c11 -27 -5 -65 -26 -65 -27
0 -44 34 -30 60 13 23 48 27 56 5z m-421 -25 c0 -29 -32 -41 -41 -16 -9 24 4
48 23 44 12 -2 18 -12 18 -28z m-1001 4 c24 -9 19 -43 -8 -55 -48 -22 -103 13
-75 47 12 14 56 19 83 8z m1190 -7 c11 -8 17 -23 14 -38 -2 -20 -9 -24 -37
-24 -48 0 -65 29 -32 56 28 23 32 23 55 6z m-750 -13 c31 -30 9 -104 -31 -104
-20 0 -53 38 -53 62 0 47 53 74 84 42z m382 -19 c7 -28 -11 -65 -31 -65 -20 0
-30 46 -17 76 14 28 39 23 48 -11z m-196 -60 c15 -18 7 -43 -16 -52 -24 -9
-46 24 -33 48 12 23 32 24 49 4z m328 -81 c3 -34 -17 -58 -41 -48 -40 15 -25
88 16 82 16 -2 23 -11 25 -34z m627 -19 c0 -17 -8 -33 -22 -42 -19 -13 -24
-12 -42 6 -26 26 -26 46 0 72 18 18 23 19 42 6 14 -9 22 -25 22 -42z m-345 6
c15 -29 -18 -66 -52 -58 -31 8 -42 31 -28 58 14 26 66 26 80 0z m-812 -23 c19
-19 14 -38 -15 -49 -54 -20 -112 12 -83 46 15 18 81 20 98 3z m-418 -33 c28
-34 -18 -77 -60 -55 -22 12 -28 55 -7 63 24 10 55 7 67 -8z m-189 -66 c9 -18
7 -25 -9 -41 -23 -24 -58 -17 -67 13 -14 44 53 69 76 28z m-46 -274 c0 -24
-48 -34 -71 -14 -22 18 2 41 40 37 23 -2 31 -8 31 -23z"/>
</g>
</svg>
